<?xml version="1.0" standalone="no"?>
<!DOCTYPE svg PUBLIC "-//W3C//DTD SVG 1.1//EN" "http://www.w3.org/Graphics/SVG/1.1/DTD/svg11.dtd">
<svg xmlns="http://www.w3.org/2000/svg">
<metadata>Generated by Fontastic.me</metadata>
<defs>
<font id="trigger" horiz-adv-x="512">
<font-face font-family="trigger" units-per-em="512" ascent="480" descent="-32"/>
<missing-glyph horiz-adv-x="512" />

<glyph glyph-name="add" unicode="&#70;" d="M512 282l-230 0 0 230-52 0 0-230-230 0 0-52 230 0 0-230 52 0 0 230 230 0z"/>
<glyph glyph-name="arrow-continue" unicode="&#71;" d="M508 277c-6 5-14 5-19 0l-45-47 0 164-361 0c-7 0-14-6-14-14 0-8 6-14 14-14l334 0 0-142-49 51c-5 6-13 6-19 0-5-5-5-13 0-19l68-72c3-3 7-4 9-4 2 0 2 0 3 0 2 0 2 0 3 0 4 0 7 1 10 4l67 72c4 6 4 15-1 21z m-504-40c6-6 14-6 19 0l45 47 0-166 361 0c8 0 14 6 14 14 0 8-6 14-14 14l-334 0 0 142 49-51c5-6 13-6 19 0 5 5 5 13 0 19l-66 72c-3 3-7 4-11 4-2 0-2 0-3 0-2 0-2 0-3 0-4 0-7-1-10-4l-66-72c-5-6-5-14 0-19z"/>
<glyph glyph-name="arrow-down" unicode="&#72;" d="M494 330l-208-205c-12-11-29-14-46-8-2 2-5 2-8 5-3 0-6 3-6 6 0 0 0 0-3 3l-207 199c-17 17-17 40 0 57 17 14 42 14 59 0l180-177 179 177c17 14 42 14 60 0 17-17 17-43 0-57z"/>
<glyph glyph-name="arrow-right" unicode="&#73;" d="M512 256c0 4-2 9-5 13l-103 109c-7 6-20 9-28 2-7-7-7-21 0-28l73-76-430 0c-11 0-19-9-19-20 0-10 8-19 19-19l430 0-73-76c-6-6-7-21 0-28 8-7 21-5 28 2l103 109c3 3 5 7 5 12z"/>
<glyph glyph-name="bin" unicode="&#74;" d="M487 421l-137 0c0 2 0 5 0 7 0 45-42 82-92 82-49 0-93-37-93-82 0-2 0-5 0-7l-140 0c-15 0-25-10-25-25 0-14 10-24 25-24l49 0 0-345c0-15 12-25 24-25l318 0c12 0 25 10 25 25l0 345 46 0c15 0 25 10 25 24 0 15-10 25-25 25z m-229 44c25 0 42-17 42-37 0-2 0-5 0-7l-83 0c0 2 0 5 0 7-3 20 17 37 41 37z m133-413l-268 0 0 320 268 0z m-194 37c15 0 25 9 25 24l0 197c0 15-10 25-25 25-15 0-25-10-25-25l0-197c0-15 10-24 25-24z m123 0c15 0 25 9 25 24l0 197c0 15-10 25-25 25-15 0-25-10-25-25l0-197c0-15 10-24 25-24z"/>
<glyph glyph-name="brightness" unicode="&#75;" d="M259 506c5-2 5-2 5-10 0-10 0-20 0-32 0 0 0-3 0-3 20 0 40-5 57-12 18-8 35-18 50-33 0 0 0 3 0 3 8 7 15 15 23 22 2 3 7 3 10 0 10 0 10-5 7-7 0 0-2-3-2-3-8-7-15-15-25-25 27-30 42-67 45-110 0 0 2 0 2 0 10 0 23 0 33 0 2 0 7-2 7-5 0-2-2-7-5-7 0 0-2 0-2 0-10 0-20 0-30 0 0 0-3 0-3 0-2-43-17-81-45-113 10-10 18-18 28-28 2-2 2-2 2-7 0-3-2-5-5-5-2 0-5 0-7 2-3 3-5 5-5 5-8 8-15 15-23 23 0 0 0 0-2-3-25-22-58-37-90-42-5 0-10 0-13-3-2 0-2 0-2-2 0-10 0-20 0-30 0-5-5-10-10-8-3 0-5 3-5 8 0 10 0 20 0 30 0 0 0 2 0 2-43 3-81 18-111 45-2-2-2-2-5-5-7-7-15-15-22-22-5 0-8 0-10 2-3 0-5 5-5 8 0 2 0 2 2 5 10 10 18 17 28 27 0 0 0 0 2 3-30 27-45 65-47 105-13 0-28 0-40 0-5 0-8 5-8 8 0 5 3 7 8 7 12 0 25 0 37 0 0 0 3 0 3 0 0 20 5 40 12 58 8 20 20 37 33 52 0 0-3 0-3 3-7 7-17 17-25 25-2 2-2 5-2 7 0 3 2 5 5 5 2 0 5 0 7-2 10-10 18-18 28-28 30 28 67 45 110 48 0 0 0 2 0 2 0 10 0 23 0 33 0 5 3 5 8 7z m-158-217c0-88 70-158 158-158 87 0 157 70 157 158 0 87-70 157-157 157-88 3-158-70-158-157z m22-283c-5 2-7 5-7 10 0 10 0 20 0 30 0 5 2 7 7 7 5 0 8-2 8-7 0-3 0-5 0-10 17 0 32 0 50 0 0 7 2 10 7 10 5 0 8-3 8-10 17 0 35 0 52 0 0 2 0 5 0 7 0 5 3 8 8 8 5 0 8-3 8-8 0-2 0-5 0-7 17 0 35 0 52 0 3 7 5 10 8 10 5 0 7-3 7-10 18 0 33 0 50 0 0 2 0 5 0 7 0 5 5 10 10 8 3-3 5-5 5-8 0-10 0-22 0-32 0-5-2-8-7-8 0 0 0 0-3 0-5 3-7 5-7 10 0 3 0 5 0 8-18 0-33 0-50 0 0-8-3-10-8-10-2 0-5 0-5 0-2 2-5 5-2 7-18 0-35 0-53 0 0-2 0-5 0-7 0-8 0-8-7-10 0 0 0 0-3 0-5 2-8 5-8 10 0 2 0 5 0 7-17 0-35 0-52 0 0-7-3-10-8-10-2 0-2 0-5 3-2 2-2 5-2 7-18 0-33 0-50 0 0-2 0-5 0-7 5 0 5-3-3-5 3 0 0 0 0 0z m136 152c0 88 0 176 0 263 45-2 82-20 107-57 30-43 30-98 5-141-27-47-75-65-112-65z"/>
<glyph glyph-name="business" unicode="&#76;" d="M493 387l-117 0 0 53c0 10-8 18-18 18l-204 0c-10 0-18-8-18-18l0-53-117 0c-11 0-19-8-19-18l0-33c64-46 257-154 512-1l0 34c0 10-8 18-19 18z m-339 53l204 0 0-53-204 0z m148-204l0-12c0-12-10-21-21-21l-50 0c-12 0-21 10-21 21l0 11c-66 5-137 27-210 75l0-238c0-10 9-18 19-18l474 0c11 0 19 8 19 18l0 237c-30-18-108-60-210-73 0 0 0 0 0 0z"/>
<glyph glyph-name="business-man" unicode="&#77;" d="M158 414c5 100 88 99 96 98 9 0 92 1 96-98 0 0 17-150-95-151l-1 0c-112 1-96 151-96 151z m83-316l0 0m-189-98l0 89c0-2 0-3 0-3 0 8 0 14 0 20l0 2c1 33 7 55 40 75 44 28 92 51 92 51l39-122 23 64c-40 55 3 58 11 58 7 0 50-3 10-58l23-64 39 122c0 0 49-23 93-51 33-20 39-43 40-75l0-2c-3-6-3-12-3-20 0 0 0 1 0 3l0-89z m-2 109c0 1 0 1 0 0z m409 0c0 1 0 1 0 0z"/>
<glyph glyph-name="calender-1" unicode="&#78;" d="M480 448l0-64-96 0 0 64-256 0 0-64-96 0 0 64-32 0 0-416 512 0 0 416z m-384-384l-64 0 0 64 64 0z m0 96l-64 0 0 64 64 0z m0 96l-64 0 0 64 64 0z m96-192l-64 0 0 64 64 0z m0 96l-64 0 0 64 64 0z m0 96l-64 0 0 64 64 0z m96-192l-64 0 0 64 64 0z m0 96l-64 0 0 64 64 0z m0 96l-64 0 0 64 64 0z m96-192l-64 0 0 64 64 0z m0 96l-64 0 0 64 64 0z m0 96l-64 0 0 64 64 0z m96-192l-64 0 0 64 64 0z m0 96l-64 0 0 64 64 0z m0 96l-64 0 0 64 64 0z m-416 224l32 0 0-64-32 0z m352 0l32 0 0-64-32 0z"/>
<glyph glyph-name="chart" unicode="&#79;" d="M0 212c0 16 0 34 0 49 3 3 3 8 3 10 15 116 112 203 227 205 8 0 8-2 8-8 0-74 0-148 0-220 0-7 3-7 8-7 74 0 148 0 222 0 8 0 8-3 8-8 0-8 0-15-2-23-13-102-90-184-192-205-8-2-16 0-23-5-16 0-31 0-47 0 0 3-2 3-5 3-102 15-181 87-204 186 0 8 0 16-3 23z m512 67c-3 3-5 0-8 0-71 0-143 0-215 0-7 0-7 3-7 8 0 71 0 143 0 215 0 2 0 5 0 7 7 0 15 0 23 0 5-2 10-2 12-2 95-13 172-87 192-179 3-11 3-18 6-28-3-6-3-13-3-21z"/>
<glyph glyph-name="checkmark" unicode="&#80;" d="M476 440c-9 0-18-4-25-10-87-87-181-188-267-276l-124 103c-14 13-36 13-50-1-14-14-14-36 1-50 1-2 2-3 4-4l149-123c14-11 34-10 48 3 94 95 196 205 289 298 15 14 15 36 1 50-7 7-16 11-26 10z"/>
<glyph glyph-name="circle" unicode="&#81;" d="M256 512c143 0 256-113 256-256 0-143-113-256-256-256-143 0-256 113-256 256 0 143 113 256 256 256z"/>
<glyph glyph-name="click" unicode="&#82;" d="M256 512c-141 0-256-115-256-256 0-10 0-18 3-28l25 10c0 5 0 10 0 18 0 128 103 230 231 230 128 0 230-102 230-230 0-128-102-230-230-230-6 0-8 0-13 0l-5-26c5 0 12 0 18 0 140 0 256 115 256 256-3 141-118 256-259 256z m0-51c-113 0-205-92-205-205 0-3 0-3 0-5l26 10c2 97 82 174 179 174 100 0 179-79 179-179 0-100-79-179-179-179l-5-26c2 0 5 0 5 0 113 0 205 92 205 205 0 113-92 205-205 205z m13-192l-205-51 59-59-115-115c-11-11-11-26 0-36 5-5 10-8 18-8 7 0 12 3 18 8l115 115 59-59z"/>
<glyph glyph-name="dragdrop" unicode="&#83;" d="M253 512c3 0 3 0 6 0 2 0 5-3 7-5 5-8 13-15 18-23 16-21 31-39 46-59 3-3 5-5 3-10-3-3-5-5-10-5-13 0-26 0-39 0-2 0-2 0-2-3 0-41 0-82 0-123 0-2 0-2 2-2 36 0 72 0 108 0 5 0 10 0 15 0 3 0 3 0 3 2 0 0 0 0 0 3 0 13 0 23 0 36 0 0 0 2 0 2 0 5 2 8 5 8 2 2 7 0 10-3 0 0 0 0 3-2 25-21 51-41 76-64 5 0 8-3 8-5 0-3 0-3 0-6 0-2-3-5-3-5-28-23-53-43-81-66-3-3-6-3-8-3-5 0-10 5-10 10 0 13 0 26 0 39 0 2 0 2-3 2-41 0-82 0-123 0 0 0-2 0-2-2 0-41 0-82 0-123 0 0 0 0 0-3 0 0 0 0 2 0 13 0 23 0 36 0 0 0 3 0 3 0 5 0 7-2 7-5 3-2 0-7-2-10 0 0-3-3-3-3-20-25-41-48-61-74-3-2-5-5-8-7-3 0-5 0-5 0-3 2-5 2-5 5-8 7-16 18-21 25-15 18-30 36-43 54-3 3-3 5 0 10 0 3 2 5 7 5 0 0 3 0 3 0 13 0 26 0 36 0 2 0 2 0 2 3 0 41 0 82 0 123 0 2 0 2-2 2-41 0-82 0-123 0 0 0 0 0-3 0 0 0-2 0 0-2 0 0 0 0 0-3 0-13 0-25 0-36 0 0 0-2 0-2 0-5-2-8-5-8-2-2-7 0-10 3 0 0 0 0-3 2-25 21-51 44-76 64-3 3-5 5-5 8-3 0-3 0-3 3 0 2 3 5 5 5 10 7 18 15 26 20 20 18 38 31 56 46 3 3 5 3 10 3 3-3 5-5 5-10 0-13 0-26 0-39 0-2 0-2 3-2 41 0 82 0 123 0 2 0 2 0 2 2 0 41 0 82 0 123 0 3 0 3-2 3-13 0-26 0-39 0-2 0-7 2-7 5-3 5-3 7 0 13 2 2 7 7 10 10 18 23 38 46 56 69 0 2 3 2 5 5z"/>
<glyph glyph-name="download" unicode="&#85;" d="M484 284c-16 0-28-13-28-28l0-172-400 0 0 172c0 15-12 28-28 28-15 0-28-13-28-28l0-200c0-15 13-28 28-28l453 0c0 0 0 0 3 0 0 0 0 0 2 0 16 0 29 13 29 28l0 200c-3 15-16 28-31 28z m-82 13c-10 10-26 10-36 0l-84-85 0 246c0 16-11 26-26 26-15 0-26-10-26-26l0-246-84 85c-10 10-26 10-36 0-10-10-10-26 0-36l128-128c3-2 5-5 8-5 2-3 7-3 10-3 3 0 8 0 10 3 3 3 5 3 8 5l128 128c10 10 10 26 0 36z"/>
<glyph glyph-name="down-arrow-1" unicode="&#86;" d="M490 415c-53 0-106 0-159 0-84 0-168 0-252 0-19 0-39 0-58 0l-1 0c-2 0-5-1-6-1 0 0-1 0-1-1-2-1-4-2-5-4-8-9-7-21 0-29 26-31 53-62 79-93 42-50 85-100 126-149 10-11 20-22 30-35 7-8 22-8 28 0 27 32 53 62 80 94 41 50 84 100 126 149 10 11 19 22 29 34 9 12 2 35-16 35z"/>
<glyph glyph-name="dislike" unicode="&#87;" d="M230 26l-3 0c-7 0-13 5-20 10-7 6-12 16-14 27-2 16-5 30-5 46 0 21 0 39 5 57 2 5 2 10 4 17l-2 0c-50 0-101 0-149 0-7 0-12 0-18 2-14 4-23 14-26 27 0 3 0 5-2 7 0 3 0 5 0 7 0 0 0 0 0 2 0 0 0 0 0 3 2 16 11 25 25 32 5 2 9 2 14 4 0 0-2 0-2 3-7 2-14 7-19 14-16 16-11 50 16 55 5 0 10 2 12 2 0 0-2 0-2 2-7 5-14 9-16 16-7 14-3 39 18 49 5 2 11 2 18 2 0 0 0 0-2 2-5 2-7 5-9 9-7 9-9 19-7 28 5 21 23 32 44 34 13 0 27 0 41 0 53 0 108 0 161 0 11 0 20 0 29-2 19-2 37-7 56-16 2 0 2-2 2-5 0-73 0-149 0-222 0 0 0-3-2-3-5-2-7-4-12-7-30-20-53-45-73-75-10-12-16-26-21-39-5-14-7-28-9-44-5-9-5-16-5-21-2-11-11-18-23-20-2-3-4-3-4-3z m280 184c0-7-7-14-14-14l-2 0c-28 0-58 0-85 0-10 0-19 7-19 19 0 85 0 170 0 255 0 9 7 16 14 16 30 0 57 0 87 0 0 0 0 0 3 0 7 0 11-5 13-12l0-4c0-85 0-170 0-255 3-3 3-5 3-5z m-88 220c0-13 12-27 28-27 16 0 28 11 28 27 0 14-12 28-28 28-14 0-28-11-28-28z"/>
<glyph glyph-name="dashboard" unicode="&#88;" d="M216 280l-192 0c-13 0-24-11-24-24l0-232c0-13 11-23 24-23l192 0c13 0 24 10 24 23l0 232c0 13-11 24-24 24z m272 232l-192 0c-13 0-24-11-24-24l0-232c0-13 11-24 24-24l192 0c13 0 24 11 24 24l0 232c0 13-11 24-24 24z m0-312l-192 0c-13 0-24-11-24-24l0-152c0-13 11-24 24-24l192 0c13 0 24 11 24 24l0 152c0 13-11 24-24 24z m-272 312l-192 0c-13 0-24-11-24-24l0-152c0-13 11-24 24-24l192 0c13 0 24 11 24 24l0 152c0 13-11 24-24 24z"/>
<glyph glyph-name="dashboard-1" unicode="&#89;" d="M512 269c0-10 0-18 0-28 0 0 0 0 0-3 0-10-3-18-3-28-7-49-30-92-64-128-46-49-99-77-166-82-3 0-5 0-8 0-10 0-18 0-28 0 0 0 0 0-2 0-21 0-41 5-59 10-100 31-169 118-179 223 0 3 0 5 0 8 0 10 0 20 0 30 0 0 0 0 0 3 0 20 5 41 10 59 31 100 118 169 223 179 2 0 5 0 7 0 10 0 18 0 28 0 0 0 0 0 3 0 18 0 33-3 51-8 105-28 179-117 190-225-3-3-3-8-3-10z m-261 179c-8 0-21 0-33-3-62-12-105-46-134-102-12-26-20-51-20-79 0-13 0-26 3-39 5-13 12-23 28-25 7-3 18 0 25 0 23 2 49 10 72 15 0 0 3 0 3 3 0 5 0 10 0 15 7 43 53 69 94 46 3 0 3 0 3 0 15 15 33 33 48 49 11 10 21 20 31 30 5 6 16 8 21 3 7-5 7-18 0-26-26-25-54-53-80-79 0 0-2-3 0-5 5-10 8-23 8-36 0-3 0-3 3-3 20-5 38-10 58-12 13-3 23-5 36-3 13 3 21 8 26 18 2 8 5 15 5 26 3 20 0 38-5 56-21 90-97 151-192 151z m-26-223c0-18 16-33 31-33 18 0 33 15 33 31 0 18-15 33-30 33-21 0-34-15-34-31z"/>
<glyph glyph-name="csv-file" unicode="&#90;" d="M489 324l-46 0 0 68c0 0 0 1 0 1 0 0 0 1 0 1 0 1 0 1 0 2 0 0 0 0 0 1 0 0-1 0-1 1 0 0 0 0 0 0-1 1-2 2-2 2l-109 108c0 1-1 1-1 1-1 0-1 1-1 1-1 0-1 0-1 0-1 0-1 0-2 1 0 0 0 0-1 0 0 0-1 0-2 0l-244 0c-6 0-10-5-10-11l0-176-46 0c-7 0-12-6-12-12l0-167c0-6 5-12 12-12l46 0 0-122c0-6 5-10 10-10l354 0c6 0 10 5 10 10l0 123 46 0c6 0 12 5 12 12l0 166c0 6-6 12-12 12z m-399 166l223 0 0-98c0-6 5-11 11-11l98 0 0-57-332 0z m324-201l-36-123-37 0-34 123 38 0 13-51c1-4 2-9 4-13 1 4 2 8 3 12l14 52z m-170-74c-21 8-31 20-31 38 0 22 17 39 42 39 12 0 25-4 32-7l4-2-8-30-7 3c-3 2-11 5-19 5-7 0-8-5-8-7 0-2 0-4 14-10 20-8 29-20 29-38 0-18-12-40-46-40-12 0-27 5-34 9l-3 2 5 30 7-4c5-3 17-7 25-7 6 0 10 3 10 8 0 3 0 5-12 11z m-84-16c6 0 13 1 16 3l7 2 5-30-4-3c-5-2-14-5-28-5-36 0-59 24-59 60 0 39 24 65 61 65 13 0 23-3 28-6l4-2-8-32-6 4c-5 3-11 4-16 4-17 0-27-11-27-31 0-19 9-29 27-29z m262-177l-332 0 0 112 332 0c0 0 0-112 0-112z"/>
<glyph glyph-name="csv" unicode="&#48;" d="M448 256l-95 0 0-143-64 0 110-113 113 113-64 0z m-448 256l0-205 512 0 0 205z m161-169c-10-8-23-10-38-10-21 0-36 5-49 18-13 13-18 33-18 56 0 26 5 44 18 56 13 13 28 21 49 21 18 0 33-5 43-16 8-7 13-15 16-28l-28-7c-3 7-6 15-11 18-5 2-12 7-20 7-10 0-21-5-26-13-5-7-13-20-13-35 0-18 3-31 11-39 7-7 15-13 25-13 8 0 16 3 21 8 5 5 10 10 13 23l28-10c-3-15-10-28-21-36z m151 10c-5-7-10-13-20-15-8-5-18-5-31-5-18 0-33 2-43 13-11 7-16 20-18 35l30 3c0-8 6-15 11-20 5-6 12-8 20-8 10 0 18 2 21 5 5 5 7 8 7 15 0 3 0 8-2 8-3 3-5 5-11 5-2 0-10 3-23 8-15 5-28 10-33 15-10 8-15 18-15 31 0 8 2 15 5 20 2 5 13 11 20 16 8 2 18 5 29 5 17 0 33-5 41-13 7-8 15-18 15-33l-31-3c0 8-5 13-8 16-5 2-10 5-17 5-8 0-16-3-21-5-2 0-2-3-2-6 0-2 2-7 5-7 2-3 12-8 28-10 15-3 25-8 31-11 5-2 12-7 15-15 2-8 5-15 5-23 0-10-3-18-8-26z m103-18l-31 0-51 146 33 0 36-107 33 107 31 0z"/>
<glyph glyph-name="combine" unicode="&#49;" d="M293 193l-109 78 0-53-177 0c-2 0-5-2-5-5l0-39c0-3 3-6 5-6l177 0 0-53z m36 50l0 52 177 0c3 0 5 3 5 5l0 40c0 2-2 5-5 5l-177 0 0 52-109-78z"/>
<glyph glyph-name="cloud-upload" unicode="&#50;" d="M238 85l0 139-34-40c-5-6-15-7-20-1-6 5-7 14-1 20l56 64 0 0-1 0 4 4c5 6 16 6 21 0l4-4 0 0 0 0 56-64c5-6 5-15-1-20-6-6-15-5-20 1l-35 40 0-139 160 0c1 0 1 0 3 0 45 0 82 37 82 83 0 36-23 66-54 77 2 8 3 17 3 25 0 55-45 100-100 100-11 0-21-2-32-5-25 37-67 62-116 62-76 0-139-63-139-140 0-2 0-4 0-6-43-11-74-50-74-96 0-54 43-98 97-100l142 0z"/>
<glyph glyph-name="close" unicode="&#51;" d="M316 256l183 181c18 18 18 43 0 61-18 18-43 18-61 0l-183-181-181 181c-18 18-43 18-61 0-18-18-18-43 0-61l181-181-184-181c-18-18-18-43 0-61 18-18 43-18 61 0l184 181 183-181c18-18 43-18 61 0 18 18 18 43 0 61z"/>
<glyph glyph-name="clip-board" unicode="&#52;" d="M435 461l-93 0-16 36c-3 9-12 15-23 15l-93 0c-10 0-19-6-23-15l-17-36-93 0c-14 0-26-12-26-26l0-409c0-14 12-26 26-26l358 0c14 0 26 12 26 26l0 409c0 14-12 26-26 26z m-150 0l22-51-102 0 22 51z m125-410l-308 0 0 359 48 0-7-16c-7-16 5-36 23-36l180 0c18 0 30 20 23 36l-7 16 48 0z m-181 104c-6 0-13 2-18 8l-48 48c-11 10-11 26 0 36 10 10 25 10 35 0l32-32 86 83c10 10 27 9 36 0 10-10 9-27 0-36l-104-101c-6-4-12-6-19-6z"/>
<glyph glyph-name="edit-1" unicode="&#53;" d="M471 369l-51-52-103 103 51 51c14 13 30 13 40 1l63-63c13-12 13-28 0-40z m-332-313l-104-21 21 105z m32 13l-102 102 226 227 102-103z m320 362l-61 61c-21 26-57 26-83 0l-63-62-248-248c-2-2-4-5-5-7l0-1c0-1 0-1 0-1l-31-154c-2-11 7-20 19-18l152 30c1 0 2 0 3 1l0 0c3 0 6 2 8 4l248 248 62 62c27 26 27 62-1 85z"/>
<glyph glyph-name="email" unicode="&#54;" d="M19 412l237-208 237 208z m-19-16l0-279 154 143c0 0-154 136-154 136z m512 0l-154-136 154-143z m-339-152l-155-144 475 0-155 144-75-66c-5-4-11-4-16 0z"/>
<glyph glyph-name="eye" unicode="&#55;" d="M258 475c2 0 5-2 7-2 4-3 6-7 6-11 0-16 0-31 0-46 0-7-6-13-13-13-6 0-13 6-13 13 0 15 0 30 0 46 0 6 4 13 11 13 0 0 2 0 2 0z m-2-438c-7 2-11 7-11 13 0 16 0 31 0 48 0 7 4 14 13 14 7 0 13-5 13-11 0-3 0-3 0-5 0-13 0-28 0-41 0-11-2-13-11-18-2 0-4 0-4 0z m0 333c24 0 48-7 70-18 31-15 59-37 81-65 7-9 11-18 11-27 0-8 0-17-4-24-3-4-7-11-11-15-27-31-57-53-92-68-18-6-37-11-57-11-22 0-42 7-61 16-33 15-62 39-86 67-6 7-9 16-11 24-4 11-2 20 2 29 5 6 7 11 11 15 27 29 57 51 92 66 18 6 35 11 55 11z m0-197c15 0 33 4 46 11 31 13 57 35 79 59 8 11 8 17 0 28-20 24-44 42-70 55-16 9-33 13-51 13-15 0-32-2-48-9-33-11-61-32-83-61-9-11-9-17 0-28 20-24 44-42 70-57 18-7 37-11 57-11z m120 212c-4 0-8 2-11 9-2 4-2 9 3 13 4 4 8 9 13 13 6 7 13 13 22 22 6 7 19 4 21-4 3-5 0-9-2-14-11-10-22-21-33-32-4-7-8-7-13-7z m3-258c4 0 6-2 8-4 11-11 22-22 33-33 4-5 4-13 0-18-4-4-13-4-17 0-11 11-22 22-33 33-5 4-5 9-2 15 0 5 4 7 11 7z m-246 258c-6 0-8 0-10 2-11 11-22 22-33 33-5 4-5 13 0 18 4 4 13 4 17 0 11-11 22-22 33-33 4-5 4-9 2-16-2-2-6-4-9-4z m0-258c5 0 9-2 11-9 3-4 3-11-2-13-6-7-15-15-22-22-4-4-6-6-11-11-4-4-13-4-17 0-4 5-4 13 0 18 11 11 22 22 33 33 0 4 2 4 8 4z m-96 116c-9 0-15 0-24 0-6 0-13 4-13 11 0 6 4 13 9 13 0 0 2 0 2 0 15 0 31 0 46 0 6 0 13-4 13-11 0-7-4-13-9-13-2 0-2 0-4 0-7 0-13 0-20 0z m438 26c6 0 15 0 22 0 6 0 13-6 13-13 0-7-7-13-13-13-16 0-31 0-46 0-7 0-11 4-13 11 0 6 4 13 8 13 3 0 3 0 5 0 8 2 17 2 24 2z m-272-13c0 28 25 53 53 53 28 0 53-25 53-53 0-28-25-53-53-53-31 0-53 25-53 53z m53 28c-15 0-28-13-28-28 0-15 13-28 28-28 15 0 28 13 28 28 0 15-13 28-28 28z"/>
<glyph glyph-name="eye-1" unicode="&#56;" d="M256 95c-93 0-178 53-254 161 76 108 161 161 254 161 93 0 178-53 254-161-76-108-161-161-254-161z m0 276c-69 0-135-37-196-115 62-78 127-115 196-115 69 0 134 37 196 115-62 78-127 115-196 115z m0-207c-51 0-93 41-93 92 0 51 42 93 93 93 51 0 92-42 92-93 0-51-41-92-92-92z m0 46c25 0 46 20 46 46 0 25-21 46-46 46-26 0-46-21-46-46 0-26 20-46 46-46z"/>
<glyph glyph-name="filter" unicode="&#57;" d="M211 2l-2 0c-1 0-2 2-2 3l0 248-179 238c-3 4-3 9-1 13 2 4 6 6 11 6l436 0c4 0 9-2 11-6 2-4 2-9 0-13l-180-238 0-158c0-1-1-2-1-3l-90-89c-1-1-2-1-3-1z"/>
<glyph glyph-name="first" unicode="&#33;" d="M183 234l224-224c13-13 33-13 45 0 12 12 12 33 0 45l-201 201 201 202c12 13 12 33 0 45-12 12-32 12-45 0l-224-224c-12-13-12-33 0-45z m-102-234c18 0 31 14 31 31l0 450c0 17-13 31-31 31-17 0-31-14-31-31l0-450c0-17 14-31 31-31z"/>
<glyph glyph-name="gears" unicode="&#34;" d="M506 192l-31 18c-1 0-1 0-1 0 0 10-1 20-3 30 0 0 0 0 1 0l27 24c4 4 6 9 4 13-2 4-4 7-4 7l-17 34-4 6c-2 4-8 6-12 4l-35-9c-1 0-1 0-1-1-7 7-15 13-23 19 0 0 0 0 0 1l2 36c1 5-2 10-6 11-4 1-7 2-7 2l-38 13-8 2c-4 2-9-1-11-6l-18-31c0 0-1 0-1-1-9 0-20-1-29-3 0 1-1 1-1 1l-24 28c-3 3-9 5-13 3-3-1-6-3-6-3l-34-18-7-4c-3-1-6-7-4-12l10-35c0 0 0 0 0-1-7-7-13-15-18-23-1 0-1 0-1 0l-36 3c-6 0-10-3-12-7l-3-8-11-37c0 0-2-4-3-7-1-4 1-10 6-12l31-18c1 0 1-1 1-1 0-9 1-19 3-29 0 0 0 0-1 0l-27-24c-4-4-6-9-4-13 2-4 4-7 4-7l18-34 3-6c2-4 8-6 13-5l34 10c1 0 1 0 1 1 8-8 15-14 23-19 0-1 0-1 0-1l-2-36c-1-5 2-10 6-11 4-1 7-3 7-3l37-11 7-2c5-2 10 1 12 6l18 31c0 0 1 0 1 1 9 0 20 1 29 3 0-1 1-1 1-1l24-28c3-3 8-5 13-3 3 1 6 3 6 3l34 18 7 4c3 1 6 7 4 12l-8 34c0 1 0 1 0 1 7 7 13 15 18 23 1 0 1 0 1 0l36-2c5-1 10 2 11 6l3 7 11 37c0 0 1 4 2 7 2 5-1 10-5 13z m-145-60c-43-22-96-6-120 37-22 43-6 96 37 119 43 23 96 7 120-36 23-43 7-97-37-120z m-229 149c3 0 5 3 5 6l2 19c0 0 0 1 0 1 6 2 11 5 15 8 1 0 1 0 1 0l18-9c2-1 6-1 7 1l3 4 14 16c0 0 1 1 3 3 1 2 1 6-1 7l-12 16c0 0 0 0 0 1 2 5 3 10 4 16 0 0 1 0 1 0l19 6c2 1 5 4 4 6 0 2 0 4 0 4l-2 22-1 4c0 2-2 5-5 5l-20 2c0 0 0 0 0 0-3 5-5 10-8 14 0 0 0 1 0 1l9 18c2 2 1 6-1 7-2 2-3 3-3 3l-17 13-4 3c-1 2-5 1-7-1l-16-11c0 0-1-1-1-1-4 2-10 3-15 5 0 0 0 0 0 0l-7 19c-1 3-3 5-6 5-2 0-4-1-4-1l-21-2-4 0c-3 0-5-3-5-6l-2-19c0 0 0-1 0-1-6-2-11-5-15-8 0 0 0 1 0 1l-18 9c-3 1-6 0-7-1l-3-4-14-16c0 0-1-1-3-3-1-3-1-6 1-8l12-16c0 0 1 0 1-1-3-4-4-10-5-15 0 0-1 0-1 0l-19-7c-2 0-5-3-4-6 0-1 1-4 1-4l1-21 1-4c0-3 2-5 5-5l20-3c0 0 1 0 1 0 2-5 4-10 7-14 0 0 0 0 0 0l-9-18c-1-3-1-6 1-7 2-2 3-3 3-3l17-14 3-3c1-2 5-1 7 0l16 12c0 0 1 1 1 1 4-2 10-4 15-5 0 0 0 0 0 0l7-19c1-3 3-5 6-5 2 1 4 1 4 1l22 2z m-73 100c-2 27 17 51 44 54 27 2 51-17 54-44 2-27-18-51-44-54-28-3-52 18-54 44z"/>
<glyph glyph-name="graph" unicode="&#35;" d="M49 509c15-12 20-28 18-48-3-10 2-16 15-16 54 0 105 0 159 0 5 0 12 3 20-2-8-21-5-41 0-62-61 0-120 0-179 0-13 0-18-2-15-15 0-23 0-46 0-69 0-8 2-10 10-10 15 0 28 0 41 15 23 26 64 23 87-2 23-26 23-67 0-90-26-23-64-26-90 0-7 5-10 15-23 15-28 0-28 0-28-28 0-18 0-36 0-54 0-7 3-12 10-12 28 0 54 0 82 0 8 0 13 2 18 10 26 28 67 31 92 5 26-26 26-67 0-92-25-26-66-26-92 2-8 8-15 11-23 11-23 0-49 0-72 0-12 0-15-3-15-16 3-20-3-36-18-48-15 0-36-6-43 2-8 8-3 28-3 44 0 148 0 299 0 448 0 10 3 15 13 12 13 0 23 0 36 0z m414-506c-15 12-20 28-18 48 3 10-2 16-15 16-38 0-77 0-118 0 5 20 8 41 0 64 36 0 69 0 105 0 28 0 28 0 28 28 0 18 0 33 0 51 0 13-2 15-15 15-54 0-110 0-164 0-13 0-18 3-13 16 3 12 3 23 0 35-2 11 0 13 13 13 54 0 110 0 164 0 13 0 18 3 15 16 0 20 0 41 0 61 0 13-5 15-15 15-13 0-26-2-36-12-23-26-64-23-89 2-26 26-23 64 2 90 26 25 64 23 90-3 5-5 7-13 18-13 30-2 30-2 30 29 0 15 8 25 21 35 15 0 36 6 43-2 8-8 3-28 3-44 0-148 0-299 0-448 0-10-3-15-13-12-13 0-23 0-36 0z"/>
<glyph glyph-name="hand-clock" unicode="&#36;" d="M119 509c3 0 5 0 8 0 10-2 15-7 20-15 5-13 5-23 0-35-8-10-13-21-18-31-7-10-12-23-15-35 0-5-2-10 0-15 0-5 3-11 3-13 2-8 5-18 7-25 3 0 5 2 8 2 10 3 18 0 23-7 5-6 7-11 10-16 2-7 7-15 10-22 5-16 10-28 20-38 5-6 8-11 13-13 10-10 18-23 20-38 3-15 3-31 3-46 0-7-3-15-3-25 0-5 3-10 3-15 2 0 5 0 7 2 0 0 3 0 3 0 5 0 10-2 12-7 0-3 3-5 3-8 0 3 3 5 3 8 2 7 7 10 15 10 2 0 5 0 5-3 2 10 5 18 2 28-2 13-2 28-2 41 0 17 7 33 18 45 5 8 12 13 17 21 10 10 18 22 21 38 0 5 2 7 5 12 2 8 7 18 15 23 5 5 12 10 20 8 3 0 8-3 10-3 0 0 0 0 0 3 3 12 8 25 10 38 0 2 0 7 0 10-2 10-5 23-10 33-2 12-10 25-18 38-5 7-7 17-5 25 3 10 8 20 21 23 2 0 2 0 5 0 2 2 5 2 5 2 0 0 2 0 2 0 10-2 16-7 21-15 12-23 27-43 40-66 13-20 25-40 36-63 5-13 7-23 10-36 0-12 0-25-5-38-5-17-10-35-13-53-10-45-23-88-38-131-3-8-5-16-8-26 8-2 16-5 23-5 8-2 10-7 10-15-5-15-7-30-12-46-3-5-5-10-10-12-3 0-3 0-6 0 0 0 0 0-2 0-61 15-119 33-180 48-2 0-2 0-5 0-53-15-106-28-157-43-10 0-18-3-25-5-3 0-3 0-5 0-6 2-8 5-11 10-5 15-7 33-12 48-3 8 2 13 7 15 8 3 13 3 21 5 2 0 2 0 5 3 0 0 0 2 0 2-8 26-18 48-26 74-10 30-17 61-25 91-5 18-10 35-13 56-5 17-2 35 5 53 5 18 13 33 23 48 18 28 33 56 51 84 7 7 13 15 25 17z m91-390c0 3 0 3 0 5-2 13-5 23-2 36 2 12 2 25 2 35 0 13-5 23-12 33-8 3-10 5-13 10-15 15-28 33-33 56-2 8-5 15-10 20-3 3-3 5-5 5-3 0-3-2-3-5-2-7 0-12 0-17 5-21 11-38 13-61 0-10 0-18-2-28-3-10-11-15-21-18-5 0-12 3-12 10 0 5 2 13 7 13 3 0 3 2 5 5 0 0 0 3 0 3 0 7 0 17-2 25-3 15-5 30-10 45-8 26-13 51-21 76-2 13-2 26 0 36 5 15 13 30 21 46 5 7 7 15 12 22 3 5 3 10 0 16 0 0-2 0-5-3 0 0-2-3-2-3-16-25-31-50-46-73-13-18-23-35-30-56-3-10-5-20-5-30 0-8 2-18 5-25 5-18 10-36 15-54 13-50 28-101 45-152 0 0 0-2 0-2 36 10 71 20 109 30z m92 0c35-10 73-20 109-30 0 0 0 2 0 2 7 23 17 48 22 71 10 31 18 64 26 94 5 18 10 35 12 53 3 13 3 28-2 41-5 15-13 28-20 40-18 31-38 61-56 91 0 0-3 3-3 3-2 3-2 3-5 3-2 0-2-3-2-6 0-5 0-7 2-12 3-8 8-13 10-20 8-16 16-31 21-46 2-10 5-20 2-33-7-30-15-58-23-89-5-17-10-33-10-50 0-5 0-10 0-16 0-2 0-2 3-2 7-3 10-8 10-13 0-5-8-10-15-7-10 2-16 7-21 15-2 5-2 13-2 18 0 12 2 27 5 40 2 10 5 23 10 33 0 5 0 10 0 13-2 2-5 5-8 0 0 0-2-3-2-5-3-8-5-13-8-21-5-15-10-27-22-40-8-8-16-15-21-23-5-5-10-13-10-20-2-15-2-28 0-43 3-10 3-21 0-28 0-5 0-8-2-13z m-231-63c3-10 5-18 8-28 55 15 109 30 164 43-2 10-5 20-7 28-56-13-112-28-165-43z m200 15c56-15 109-30 165-43 2 10 5 18 7 28-55 15-108 30-164 43-3-8-5-18-8-28z m36 251c2-3 5-8 7-10 5-5 3-13-2-18-5-5-13-3-18 3-3 2-5 7-8 10 0 0-2 2-2 0-20-8-41-8-61 0-2 0-2 0-2 0 0-3-3-5-6-8-5-8-12-8-17-5-5 5-5 13-3 18 3 2 5 7 8 10-3 5-5 7-8 10-20 28-23 56-7 86 0 3 0 3 0 3-13 15-8 38 7 50 15 13 38 8 48-10 0-2 3-2 3-2 5 0 13 0 18 0 2 0 2 0 2 2 8 13 20 18 36 15 15-2 25-10 27-25 3-10 0-23-5-30 0 0 0-3 0-3 18-33 11-71-17-96 2 2 2 2 0 0z m-51 5c30 0 56 25 56 56 0 30-26 55-56 55-30 0-56-25-56-55 0-31 26-56 56-56z m53 114c3 5 0 10-5 13-5 2-10 2-13 0 6-5 13-11 18-13z m-106 0c5 2 12 8 18 13-3 2-11 2-16 0-2-3-5-11-2-13z m43-48c0 7 0 12 0 18 0 10 10 15 18 10 5-3 5-5 5-10 0-11 0-21 0-33 0-8-5-11-10-11-11 0-21 0-31 0-7 3-13 8-13 16 0 7 6 10 13 12 5-2 10-2 18-2z"/>
<glyph glyph-name="help" unicode="&#37;" d="M255 511c-140 0-255-115-255-255 0-140 115-255 255-255 140 0 254 115 254 255 3 140-112 255-254 255z m12-393c0-10-7-17-17-17-11 0-18 7-18 17l0 13c0 10 7 18 18 18 10 0 17-8 17-18z m74 194c-7-28-28-48-43-66-15-15-28-28-28-38 0-11-8-18-18-18-10 0-18 7-18 18 0 25 21 45 39 63 15 16 30 31 35 49 0 15-2 28-10 38-10 13-25 18-48 18-23 0-41-10-49-28-7-13-7-28-7-28 0-11-8-18-18-18-10 0-18 7-18 18 0 2 0 23 13 46 10 20 33 45 81 45 43 0 66-17 77-33 15-18 17-43 12-66z"/>
<glyph glyph-name="help-file" unicode="&#38;" d="M439 453l-31 0 0 41c0 10-7 18-18 18l-330 0c-10 0-18-8-18-18l0-415c0-10 8-18 18-18l41 0 0-15c0-26 21-46 46-46l274 0c26 0 46 20 46 46l0 376c3 16-13 31-28 31z m-220-25c46 0 82-39 82-82 0-23-8-44-26-59 0-3-2-5-7-8-13-10-24-20-24-43 0-3-2-3-2-3l-46 0c-3 0-3 3-3 3 0 48 28 71 44 81 2 3 2 3 5 3 5 10 8 18 8 26 0 18-16 30-31 30-18 0-31-15-31-30 0-3-2-3-2-3l-46 0c-3 0-3 3-3 3 0 46 36 82 82 82z m28-239c0-15-13-28-28-28-15 0-28 13-28 28 0 16 13 29 28 29 15 0 28-11 28-29z m192-143c0-8-8-15-15-15l-277 0c-7 0-15 7-15 15l0 15 256 0c10 0 18 8 18 18l0 343 30 0 0-376z"/>
<glyph glyph-name="help-line" unicode="&#39;" d="M229 154l51 0 0-51-51 0z m26 357c-140 0-255-115-255-255 0-140 115-255 255-255 140 0 254 115 254 255 3 140-112 255-254 255z m0-464c-115 0-209 94-209 209 0 115 94 209 209 209 114 0 209-94 209-209 0-115-92-209-209-209z m99 283c-13 53-69 89-122 76-46-10-79-51-79-99l51 0c2 28 28 48 56 46 28-3 48-28 46-56-5-26-28-44-54-44-13 3-23-7-23-20l0-53 51 0 0 28c56 15 87 68 74 122z"/>
<glyph glyph-name="import" unicode="&#40;" d="M102 0l370 0 0 512-370 0 0-102 51 0 0 51 268 0 0-410-268 0 0 51-51 0z m-62 230l236 0-61-59 36-36 123 121-123 122-36-38 61-58-236 0z"/>
<glyph glyph-name="pinch" unicode="&#41;" d="M239 0c-5 0-7 0-12 3-26 5-44 20-57 46 0 0 3 0 3 0 5 2 7 5 13 10 12 8 15 20 15 36 0 2 0 5 0 7 15-2 28 3 41 13 10 10 15 26 10 41 5 0 10 0 13 3 23 2 38 20 38 43 0 10-5 21-12 28-11 8-23 21-34 31-43 41-84 82-128 120-5 8-10 11-15 18-8 8-10 18-8 31 5 10 13 18 26 21 10 2 18-3 25-8 11-10 21-18 31-28 33-36 69-69 105-103 8-7 18-15 28-18 11-2 21 0 31 8 8 5 10 10 15 18 8 13 16 26 26 41 5 8 10 13 18 15 15 5 31 3 41-10 10-13 10-31 2-46-5-10-10-18-15-28-15-26-31-51-49-80-2-2-2-5 0-10 8-15 16-28 21-43 10-23 10-49 0-72-8-18-23-31-39-38-30-16-58-29-89-44-10-2-21-5-31-5 0 0 0 0-2 0-3 0-6 0-11 0z m-23 84c0-17-10-33-25-43 0 0 0 0 2-3 21-23 54-33 82-18 31 13 59 29 90 44 15 8 25 18 33 31 10 20 10 41 0 61-5 16-13 28-20 41-6 8-3 15 0 26 20 33 41 69 61 105 0 2 3 2 3 5 2 7 2 15-3 23-5 8-13 8-23 8-5-6-8-8-10-13-8-13-16-28-26-41-5-8-10-13-15-21-13-13-28-15-46-10-16 5-26 13-36 23-39 36-77 72-115 108-8 7-16 12-21 20-7 5-15 5-20 0-8-5-8-15 0-23 5-5 10-10 15-15 38-36 77-72 115-110 16-16 31-29 46-44 13-15 21-31 16-51-5-26-23-41-49-46-2 0-2-3-2-3-3-20-16-36-34-46-5-2-10-5-18-8z m69 428c3 0 3 0 0 0 8-3 11-5 11-10 0-10 2-18 2-28 0-6 0-11 3-16 0-2 0-5 0-7 0-6-5-11-10-11-8 3-11 5-13 11 0 2 0 7-3 10-2 13-2 25-2 36 0 2 0 5 2 7 0 5 3 8 5 8 3 0 5 0 5 0z m-46-369c0-12-7-20-18-25-12-5-23-3-33 5-28 25-54 51-82 77-2 2-5 5-7 7-8 11-13 21-8 34 5 12 13 18 25 20 11 3 18-2 24-8 30-28 58-56 89-84 8-8 10-15 10-26z m-15 0c0 5-3 11-5 13-31 28-59 56-90 85-2 2-7 5-13 5-7-3-12-5-12-13 0-5 0-10 5-15 10-11 20-18 31-29 20-17 38-35 58-53 6-8 11-8 18-5 5 2 8 7 8 12z m-51 169c7 0 15-2 23-10 18-15 36-33 54-51 10-8 18-18 28-26 5-7 10-13 13-20 5-18-6-33-23-39-11-2-18 0-26 8-10 10-21 18-28 28-21 18-41 39-59 57-8 5-13 12-13 20-2 18 10 33 31 33z m0-15c-5 0-10-3-13-8-5-7-3-13 3-18 7-7 15-15 25-23 21-20 44-41 64-61 5-5 10-5 18 0 5 2 8 8 5 15 0 5-5 8-7 13-13 13-26 23-39 36-15 13-31 28-46 41-3 2-5 5-10 5z m-90-105c8 0 16-5 21-10 7-8 18-16 25-26 16-15 31-28 46-43 5-5 11-13 11-21 2-15-11-33-26-36-10-2-20 3-28 11-16 12-28 28-44 41-10 7-18 17-28 25 0 8-5 15-8 21-5 18 8 35 24 38 5 0 5 0 7 0z m0-15c-7 0-13-3-15-8-3-5-3-10 0-15 2-3 2-3 5-6 23-23 49-46 72-66 5-3 5-5 7-5 11-5 23 2 21 15 0 5-3 8-5 13-18 18-36 33-54 51-5 5-13 13-18 18-5 0-8 3-13 3z m266 240c0 5 3 8 6 11 5 5 12 7 17 12 6 5 11 8 18 13 3 0 3 3 6 3 5 2 10 0 12-5 3-6 3-11 0-13 0-3-2-3-5-5-10-8-23-16-33-23-3-3-5-3-8-6-2 0-7 0-10 3 0 3-3 8-3 10z m-30 28c0 3 0 3 2 6 5 12 13 28 18 41 3 5 8 7 13 7 5 0 10-5 10-10 0-3 0-5 0-8-5-15-13-28-18-43-5-3-10-5-18-3-5 0-7 5-7 10z m-69-15c-6 0-8 3-11 5-10 13-18 26-28 36-2 5-2 13 3 18 7 3 13 3 18-5 10-10 18-23 25-36 3-5 3-8 0-13 0-5-5-5-7-5z"/>
<glyph glyph-name="pen" unicode="&#42;" d="M320 421l-303-303-17-118 118 17 303 303z m118 84l67-67c9-9 9-25 0-34l-50-50-101 100 50 51c9 9 25 9 34 0z"/>
<glyph glyph-name="paper-clip" unicode="&#43;" d="M488 400c0 61-51 112-112 112-32 0-58-13-80-32l-230-234c-26-25-41-64-41-102-1-80 63-144 143-144 38 0 77 16 102 41l186 189-22 23-189-189c-20-19-48-32-77-32-61 0-112 51-112 112 0 32 13 61 32 80l230 233c16 13 36 23 58 23 45 0 80-36 80-80 0-23-10-42-22-54l-215-218c-10-10-22-16-35-16-26 0-48 23-48 48 0 13 6 26 12 33l100 102-23 22-99-102c-12-13-22-33-22-55 0-45 35-80 80-80 22 0 41 10 58 26l220 224c0 0 0 0 0 3 17 16 26 41 26 67z"/>
<glyph glyph-name="notification" unicode="&#44;" d="M1 249c0 5 0 7 0 12 0 0 0 2 0 2 0 14 5 28 12 40 18 34 49 53 88 55 19 0 35 0 54 0 2 0 2 0 4 3 80 42 161 84 240 125 0 0 2 0 2 3 3 0 3 0 5 0 0 0 0 0 2 0 10 0 17-5 26-10 14-7 23-18 30-32 14-23 24-47 31-72 7-31 11-61 14-91 0-5 0-9 0-14 0-9 0-21 0-30 0 0 0-3 0-3 0-18-3-39-5-58-5-25-12-53-21-77-7-18-16-37-30-51-10-9-19-18-33-23-5-2-9-2-16-2 0 0 0 0-3 0-81 41-160 86-242 128 0 0-2 0-2 0-5 0-12 0-16 0 0-3 0-3 0-3 0-11 0-23 0-35 0-2 0-7 0-9 0-5-3-7-7-9-3-3-5-5-9-5-10 0-19 0-26 0-5 0-9 0-14 2-7 3-9 5-9 12 0 14 0 30 0 44 0 5 0 5-5 7 0 0-2 0-2 0-35 14-59 40-68 79 0 5 0 10 0 12z m314 7c0-28 3-56 10-84 4-21 11-42 23-60 7-12 14-21 26-28 7-5 16-7 23-7 11 0 21 7 30 14 12 11 19 23 26 37 14 30 18 61 21 91 2 18 2 39 0 58-3 23-5 49-12 72-5 19-12 37-23 54-7 9-14 18-26 23-12 7-23 7-37 0-9-5-19-14-23-23-12-17-19-33-24-52-9-28-14-62-14-95z m49-70c-9 0-16 3-23 5l0 130c7 2 14 5 23 5 40 0 70-30 70-70 0-40-33-70-70-70z"/>
<glyph glyph-name="next" unicode="&#45;" d="M391 279l-224 224c-13 12-33 12-46 0-12-12-12-32 0-45l202-202-202-202c-12-12-12-33 0-45 13-12 33-12 46 0l224 225c12 12 12 32 0 45z"/>
<glyph glyph-name="minus" unicode="&#46;" d="M12 307l488 0 0-102-488 0z"/>
<glyph glyph-name="menu-star" unicode="&#47;" d="M181 414l-173 0 0-173 173 0z m-28-145l-116 0 0 116 116 0z m-145-269l173 0 0 173-173 0z m29 144l116 0 0-115-116 0z m207-144l173 0 0 173-173 0z m29 144l115 0 0-115-115 0z m84 368l-11-21-35-71-101-15 73-71-17-101 91 48 91-48-18 101 74 71-102 15z m0-53l30-60 66-10-48-46 12-67-60 31-60-31 12 67-48 46 66 10z"/>
<glyph glyph-name="menu" unicode="&#58;" d="M32 395l448 0c17 0 32 15 32 32 0 17-15 32-32 32l-448 0c-17 0-32-15-32-32 0-17 15-32 32-32z m448-107l-448 0c-17 0-32-15-32-32 0-17 15-32 32-32l448 0c17 0 32 15 32 32 0 17-15 32-32 32z m0-171l-448 0c-17 0-32-15-32-32 0-17 15-32 32-32l448 0c17 0 32 15 32 32 0 17-15 32-32 32z"/>
<glyph glyph-name="manager-dashboard" unicode="&#59;" d="M63 84l0-84 386 0 0 84c0-1 0-3 0-3 0 7 0 13 0 19l0 3c0 0 0 0 0 0-1 31-7 52-38 72-41 26-87 48-87 48l-36-116-21 61c37 52-3 55-10 55-7 0-48-2-10-55l-21-61-37 116c0 0-46-23-87-48-31-20-37-41-37-72 0 0 0 0 0 0l0-3c0-6 0-12 0-19-2 0-2 1-2 3z m385 19c0 0 0 0 0 0 0 1 0 0 0 0z m-385 0c0 0 0 1 0 0z m317 340c-2 1-5 2-6 1l-27-6c-6 9-14 17-23 24l7 26c1 5-1 9-6 12l-24 11c-5 1-10 0-13-4l-15-24c-11 2-22 2-32 0l-14 24c-1 1-3 3-5 4-2 1-5 1-8 0l-12-5-13-5c-5-2-7-7-6-12l6-26c-9-6-16-14-23-22l-26 7c-5 1-10-2-12-7l-5-12-6-12c-2-5-1-10 4-13l23-15c-2-10-2-21 0-31l-23-14c-5-3-6-8-5-13l5-13 5-13c1-2 3-5 6-5 1-1 4-1 6-1l26 6c7-8 14-16 22-22l-7-26c-1-5 1-10 6-13l24-11c5-1 10 0 13 4l15 23c10-2 21-2 31 0l14-23c2-2 3-4 5-5 3-1 6-1 8 0l13 5 13 5c5 2 7 7 6 12l-6 26c9 6 16 14 23 22l27-6c4-2 9 1 12 6l5 12 6 12c2 5 0 10-5 13l-23 14c2 11 2 22 1 32l23 14c4 2 6 8 4 13l-9 25c-1 3-3 6-5 6z m-101-129c-32-14-69 2-82 34-13 33 3 70 35 83 32 13 69-3 82-35 13-32-2-69-35-82z"/>
<glyph glyph-name="logout" unicode="&#60;" d="M256 0c-69 0-132 26-181 75-100 100-100 262 0 362l45-45c-75-75-75-197 0-272 37-37 85-57 137-57 52 0 99 20 136 57 37 36 57 84 57 136 0 52-20 100-57 136-13 13-13 33 0 46 13 13 33 13 46 0 48-49 75-113 75-181 0-69-27-133-75-181-50-50-114-76-183-76z m0 249c-18 0-32 14-32 32l0 199c0 18 14 32 32 32 18 0 32-14 32-32l0-199c0-18-14-32-32-32z"/>
<glyph glyph-name="like" unicode="&#61;" d="M280 486c0 0 2 0 2 0 7 0 14-5 21-10 7-6 12-16 14-27 2-16 4-30 4-46 0-21 0-39-4-57-2-5-2-10-5-17 0 0 3 0 3 0 50 0 101 0 149 0 7 0 11 0 18-2 14-4 23-14 25-27 0-3 0-5 3-7 0-3 0-5 0-7 0 0 0 0 0-2 0 0 0 0 0-3-3-16-12-25-26-32-4-2-9-2-13-4 0 0 2 0 2-3 7-2 14-7 18-14 16-16 12-50-16-55-4 0-9-2-11-2 0 0 2 0 2-2 7-5 14-9 16-16 7-14 2-39-18-49-5-2-12-2-19-2 0 0 0 0 3-2 4-2 7-5 9-9 7-9 9-19 7-28-5-21-23-32-44-34-14 0-27 0-41 0-53 0-108 0-161 0-11 0-21 0-30 2-18 2-36 7-55 16-2 0-2 2-2 5 0 73 0 149 0 222 0 0 0 3 2 3 5 2 7 4 12 7 29 20 52 45 73 75 9 12 16 26 21 39 4 14 7 28 9 44 5 9 5 16 5 21 2 11 11 18 23 20 2 3 4 3 4 3z m-280-184c0 7 7 14 14 14 0 0 2 0 2 0 28 0 57 0 85 0 9 0 18-7 18-19 0-85 0-170 0-255 0-9-6-16-13-16-30 0-58 0-88 0 0 0 0 0-2 0-7 0-11 5-14 12 0 0 0 2 0 2 0 0 0 2 0 2 0 85 0 170 0 255-2 3-2 5-2 5z m87-220c0 13-11 27-27 27-16 0-28-11-28-27 0-14 12-28 28-28 13 0 27 11 27 28z"/>
<glyph glyph-name="last" unicode="&#62;" d="M329 279l-224 224c-13 12-33 12-45 0-13-12-13-32 0-45l201-202-201-201c-13-12-13-33 0-45 12-13 32-13 45 0l224 224c12 12 12 32 0 45z m101-279c-17 0-31 14-31 31l0 450c0 17 14 31 31 31 18 0 31-14 31-31l0-450c0-17-13-31-31-31z"/>
<glyph glyph-name="info" unicode="&#63;" d="M256 511c-141 0-255-114-255-255 0-141 114-255 255-255 141 0 255 114 255 255 0 141-114 255-255 255z m-4-94c21 0 38-17 38-38 0-21-17-37-38-37-21 0-37 16-37 37 0 21 16 38 37 38z m60-322l-112 0 0 45 25 0 0 132-2 0c-12 0-22 10-22 22 0 13 10 23 22 23l65 0 0-178 24 0z"/>
<glyph glyph-name="pluse" unicode="&#64;" d="M512 310l-202 0 0 202-108 0 0-202-202 0 0-108 202 0 0-202 108 0 0 202 202 0z"/>
<glyph glyph-name="previous" unicode="&#94;" d="M121 234l224-225c13-12 33-12 46 0 12 12 12 33 0 45l-202 202 202 202c12 13 12 33 0 45-13 12-33 12-46 0l-224-224c-12-13-12-33 0-45z"/>
<glyph glyph-name="profile-settings" unicode="&#95;" d="M18 215l38 0c5-26 16-51 31-74l-28-28c-8-8-8-18 0-23l33-34c8-7 18-7 23 0l28 28c23-15 46-25 75-30l0-39c0-10 7-18 18-18l46 0c10 0 18 8 18 18l0 39c25 5 51 15 74 30l28-28c8-7 18-7 23 0l33 34c8 7 8 18 0 23l-28 28c15 23 26 46 31 74l38 0c10 0 18 8 18 18l0 46c0 10-8 18-18 18l-38 0c-5 26-16 51-31 74l28 28c8 8 8 18 0 23l-33 34c-8 7-18 7-23 0l-28-28c-23 15-46 25-74 30l0 36c0 10-8 18-18 18l-49 0c-8 0-18-8-18-18l0-38c-26-5-51-16-74-31l-26 28c-7 8-18 8-23 0l-33-33c-8-5-8-16 0-23l28-28c-15-23-26-46-31-75l-38 0c-10 3-18-5-18-15l0-46c0-10 8-18 18-18z m238 184c79 0 143-64 143-143 0-79-64-143-143-143-79 0-143 64-143 143 0 79 64 143 143 143z m67-166c-8 8-18 15-29 18-23-21-56-21-79 0-33-15-54-49-54-85l190 0c0 26-11 49-28 67z m-18 64c0 3 0 3 0 5 0 0 0 3 0 3 0 0 0 2 0 2 0 0 0 3 0 3 0 0 0 2 0 2 0 0 0 3-3 3 0 0 0 2 0 2 0 0 0 3 0 3-2 5-5 8-10 13-18 15-44 15-62 0-10-3-12-5-15-10 0 0 0-3 0-3 0 0 0-3 0-3 0 0 0-2-3-2 0 0 0-3 0-3 0 0 0-2 0-2 0 0 0-3 0-3 0 0 0-2 0-2 0-3 0-3 0-5 0-26 21-49 49-49 28 0 44 20 44 46z"/>
<glyph glyph-name="reward" unicode="&#96;" d="M212 506c3 0 8 0 10 0 3 0 5-2 5-2 8-3 13-8 18-10 7-5 15-5 22 0 8 5 15 10 25 12 3 0 8 0 10 0 5-2 10-7 13-12 2-5 5-10 10-15 5-8 10-10 17-10 8 0 15 0 23 0 12 0 20-8 20-20 0-8 0-15 0-23 0-7 2-12 10-15 7-2 12-7 20-12 5-3 7-8 10-13 0-2 0-2 0-5 0-2-3-5-3-7-7-10-10-18-12-23-5-7-5-15 0-22 2-8 7-15 10-20 5-10 2-20-8-25-5-3-12-8-17-10-8-5-10-10-10-18 0-8 0-15 0-23 0-12-8-20-20-20-8 0-15 0-23 0-5 0-10-2-15-5 0 0 0-2 0-2 20-58 43-113 63-170 0 0 0 0 0-3 0 0 0 0-3 0-15 5-27 13-42 18-3 0-3 0-3 0-7-13-15-28-20-40 0 0 0-3 0-3-20 58-42 115-62 175-23-57-43-115-65-175 0 0 0 3-3 3-7 12-15 27-20 40 0 2-2 2-2 0-13-5-28-13-40-18 0 0-3 0-3 0 0 0 0 0 0 3 5 20 13 45 23 67 12 33 25 68 37 100 0 3 0 3 0 5-5 3-7 5-12 5-8 0-15 0-23 0-12 0-20 8-20 20 0 8 0 15 0 23 0 8-2 13-7 15-10 5-18 8-23 13-7 2-10 7-12 15 0 2 0 2 0 5 0 2 2 5 5 10 2 5 7 10 10 15 5 7 5 15 0 22-5 8-13 15-15 25 0 3 0 5 0 5 0 5 5 10 10 15 7 5 12 8 20 13 7 5 10 10 10 17 0 8 0 15 0 20 0 3 0 5 0 8 2 7 10 15 20 15 7 0 17 0 25 0 7 0 12 2 15 10 5 7 7 12 12 20 0 2 5 5 10 7z m-62-167c0-58 47-108 105-108 60 0 107 48 107 108 3 60-47 107-105 107-60 0-107-47-107-107z m57-53c0 5 3 10 3 15 0 8 2 13 2 20 0 3 0 5-2 8-8 7-18 17-25 25 0 2-3 5 0 10 0 2 2 5 7 7 8 0 13 3 20 3 5 0 10 2 15 2 5 0 8 3 8 5 5 10 10 20 15 30 2 3 5 5 7 5 3 0 8-2 8-5 5-10 10-22 15-32 2-3 2-3 5-5 10-3 22-3 32-5 0 0 3 0 3 0 5 0 7-5 5-10 0 0 0-3-3-3-7-7-15-17-25-25 0-2 0-7 0-10 3-10 5-22 5-32 0-3 0-5-2-8-3-2-5-2-10 0 0 0-3 0-3 3-7 0-17 5-25 10-2 2-7 2-12 0-10-5-20-10-28-15-7-5-15 0-15 7z"/>
<glyph glyph-name="search-1" unicode="&#123;" d="M505 43l-138 138c70 89 54 218-36 288-89 70-218 53-288-36-70-90-53-218 36-288 74-57 178-57 252 0l137-138c11-9 27-9 37 1 9 10 9 25 0 35z m-452 263c0 85 68 153 153 153 85 0 153-68 153-153 0-85-68-153-153-153-85 0-153 68-153 153z"/>
<glyph glyph-name="search-file" unicode="&#124;" d="M185 509c66 0 132 0 197 0 8-3 13-8 13-15 0-94 0-185 0-278 0 0 0 0 0-3-43 25-96 13-126-18-16-15-26-35-28-55-5-28 2-53 18-76 0 0 0 0-3 0-63 0-126 0-187 0-8 0-15 5-15 12 0 99 0 200 0 299 0 0 2 0 2 0 38 0 76 0 114 0 3 0 3 0 5 0 5 2 10 7 10 15 0 40 0 78 0 119z m256-506c-3 0-3 3-5 3-16 15-31 30-46 45 0 0-3 0-3 0-48-33-113-5-123 53-8 43 20 86 63 96 45 10 88-20 96-65 2-21 0-41-13-59 0 0 0-2 0-2 15-15 31-30 48-48 5-5 5-8 0-13-2-2-5-5-7-7-3-3-3-3-5-5-3 2-5 2-5 2z m-152 119c0-28 23-53 53-53 28 0 53 23 53 53 0 28-23 53-53 53-30 0-53-25-53-53z m-228 283c33 33 64 63 96 96 0 0 0 0 0-2 0-31 0-61 0-91 0 0 0-3-2-3-33 0-63 0-94 0z"/>
<glyph glyph-name="sorting" unicode="&#125;" d="M89 298c0 0 0 0 0 0 2-2 4-3 6-3 0 0 1 0 2 0 36 0 72 0 108 0 57 0 114 0 171 0 14 0 27 0 40 0 12 0 17 15 10 24-18 21-36 42-54 64-29 34-57 67-86 101-7 7-13 15-20 23-5 6-16 6-20 0-18-21-36-42-54-63-28-34-57-68-85-102-7-7-14-15-21-23-4-6-5-14 0-19 1-1 2-1 3-2z m327-81c-36 0-72 0-108 0-58 0-114 0-172 0-13 0-26 0-39 0 0 0-1 0-1 0-1 0-3 0-4 0 0 0-1 0-1-1-1-1-2-2-3-3-6-5-5-14 0-19 18-22 36-42 54-64 28-34 57-68 86-101 7-8 13-15 20-23 5-6 15-6 19 0 18 21 36 42 54 63 28 34 57 68 86 101 7 8 13 15 20 24 6 8 1 23-11 23z"/>
<glyph glyph-name="sitemap" unicode="&#126;" d="M506 91l-37 0 0 119c0 8-6 15-14 15l-185 0 0 105 71 0c4 0 6 2 6 6l0 170c0 4-2 6-6 6l-170 0c-4 0-6-2-6-6l0-170c0-4 2-6 6-6l71 0 0-105-185 0c-8 0-14-7-14-15l0-119-37 0c-4 0-6-2-6-6l0-79c0-4 2-6 6-6l102 0c4 0 6 2 6 6l0 79c0 4-2 6-6 6l-37 0 0 105 171 0 0-105-37 0c-4 0-6-2-6-6l0-79c0-4 2-6 6-6l102 0c4 0 6 2 6 6l0 79c0 4-2 6-6 6l-37 0 0 105 171 0 0-105-37 0c-4 0-6-2-6-6l0-79c0-4 2-6 6-6l102 0c4 0 6 2 6 6l0 79c0 4-2 6-6 6z"/>
<glyph glyph-name="spark" unicode="&#92;" d="M313 512l-199-284 142 0-57-228 199 284-142 0z"/>
<glyph glyph-name="spark-an-employee" unicode="&#57344;" d="M373 289l-81 0 48 170c3 10-10 17-17 8l-191-228c-6-6-1-16 7-16l81 0-48-170c-3-10 10-17 17-8l192 228c5 6 0 16-8 16z"/>
<glyph glyph-name="spark-approve" unicode="&#57345;" d="M237 505l-194-277 138 0-55-221 194 277-139 0z m122-277c60 0 110-50 110-111 0-60-50-110-110-110-61 0-111 50-111 110 0 61 50 111 111 111z m-45-124l20-20c2-3 5-5 11-5 2 0 8 2 11 5l50 50c5 6 5 17 0 22-6 6-17 6-23 0l-38-39-9 9c-5 5-16 5-22 0-5-9-5-17 0-22z"/>
<glyph glyph-name="star" unicode="&#57346;" d="M118 188l-26-157c-2-6 1-12 6-15 5-4 12-4 17-1l140 74 142-75c2-1 5-2 7-2 4 0 7 1 9 3 6 4 8 10 7 16l-27 156 114 111c4 5 6 10 4 17-2 6-7 10-14 11l-156 23-70 143c-6 11-24 11-30 0l-70-143-157-23c-6-1-11-5-13-11-2-6 0-12 4-17z m66 130c6 1 10 4 13 9l59 121 59-121c3-5 7-8 13-9l133-19-97-94c-4-4-5-10-4-15l23-132-120 63c-2 1-5 1-8 1-2 0-5 0-7-1l-119-63 23 133c1 5-1 10-5 14l-96 94z"/>
<glyph glyph-name="spark-reject" unicode="&#57347;" d="M237 505l-194-277 138 0-55-221 194 277-139 0z m44-310c44 44 114 44 158 0 44-44 44-114 0-158-44-44-114-44-158 0-44 47-44 116 0 158z m30-50l28-28-28-27 23-22 27 27 28-27 22 22-28 27 28 28-22 22-28-27-27 27z"/>
<glyph glyph-name="uncheck-1" unicode="&#57349;" d="M461 512l-410 0c-28 0-51-23-51-51l0-410c0-28 23-51 51-51l410 0c28 0 51 23 51 51l0 410c0 28-23 51-51 51z m-229-358l-110 92 29 38 77-65 127 139 35-33z"/>
<glyph glyph-name="trophy" unicode="&#57351;" d="M109 512c100 0 197 0 297 0 2-3 5-3 5-8 0-5 0-10 0-15 0-3 0-3 2-3 13 3 26 6 36 3 23-3 41-18 46-41 0-3 0-5 3-8 0-5 0-10 0-15 0 0 0 0 0-3 0-5-3-10-3-15-5-20-15-41-25-59-28-43-67-79-115-102 0 0-3 0-3-3-13-18-28-33-49-46-2 0-2-2 0-5 8-5 13-13 13-20 0-8-5-16-13-18 0 0-2 0-2 0 0-3 0-8 0-11 10-23 25-41 46-56 2-3 2-5 2-5 0-3-2-3-5-3 0 0-2 0-2 0-54 0-110 0-164 0 0 0-3 0-3 0-2 0-5 3-5 5 0 3 0 6 3 6 18 12 31 30 41 51 2 5 5 10 2 15 0 3 0 3-2 3-8 2-13 10-13 18 0 10 3 15 13 20 2 0 2 3 0 5-21 10-36 26-49 44 0 2-2 2-2 2-52 26-93 64-121 113-13 18-20 36-23 54-2 2-2 7-2 10 0 5 0 10 0 15 0 3 0 3 0 5 2 13 7 23 18 34 12 10 25 13 41 13 7 0 17-3 25-3 3 0 3 0 3 3 0 5 0 10 0 15 0 2 2 2 5 5z m23-207c0 2 0 2 0 0-13 38-21 74-26 112 0 11-2 23-2 34 0 0 0 2 0 2-11 3-23 5-36 3-8 0-16-5-16-13 0-3 0-5 0-8 0-13 3-25 8-38 8-21 21-41 36-59 10-13 23-23 36-33z m251 0c0 2 0 2 0 0 18 15 30 30 43 48 13 16 26 36 31 57 3 10 5 20 3 30-3 8-6 16-16 16-2 0-8 0-13 0-7 0-18-3-25-5-3 0-3 0-3-3 0-18-2-36-5-51-2-23-8-46-15-69 2-8 0-16 0-23z m-241-305c-2 3-5 5-5 8 0 15 0 30 0 46 0 5 3 7 8 7 74 0 146 0 220 0 5 0 7-2 7-7 0-16 0-31 0-46 0-3 0-5-5-8-74 0-148 0-225 0z"/>
<glyph glyph-name="team" unicode="&#57352;" d="M240 105c-6 0-12 1-18 1-28 3-55 7-81 18-11 4-20 10-28 18-6 7-9 14-7 23 3 8 5 17 8 25 2 5 5 10 10 13 14 12 30 20 47 26 9 4 18 7 27 10 3 1 4 0 6-1 12-12 26-21 44-23 12-1 23 0 34 5 10 4 19 11 27 18 1 1 3 2 4 1 22-6 43-14 62-27 21-13 21-14 29-39 1-4 2-8 2-12 2-7-1-13-6-18-5-5-11-10-17-13-17-10-37-15-56-19-17-3-35-5-52-6-1 0-3 0-4 0-10 0-20 0-31 0z m24 302c4-1 7-1 11-2 32-10 51-32 56-65 5-39-10-71-39-97-13-11-28-16-44-13-17 3-30 13-40 25-18 21-28 46-28 73 0 38 27 73 66 79 1 0 1 0 2 0 5 0 11 0 16 0z m-264-196c1 4 3 8 3 12 2 11 8 17 17 23 13 7 26 13 40 18 1 0 3-1 4-1 9-9 20-16 32-18 16-3 30 2 43 11 3 2 5 5 8 7 1 0 2 1 3 1 10-5 21-9 31-13 0 0 1-1 1-1-9-4-18-7-27-11-11-6-22-12-33-18-14-9-22-22-27-38 0-3-1-6-2-9 0 0-2-2-2-2-26 2-52 5-75 18-5 2-8 6-12 9-2 2-3 5-4 8 0 1 0 3 0 4z m512-4c-3-8-9-13-16-17-14-8-29-12-44-14-10-2-20-3-30-4-2 0-3 1-4 3 0 4-2 8-3 12-4 15-13 26-26 34-18 12-36 21-56 28-1 0-2 1-3 1 1 1 1 1 2 2 10 4 20 8 30 12 2 1 3 0 4-1 9-9 19-16 32-18 16-3 30 2 42 11 2 1 4 2 5 4 3 4 7 4 11 2 15-5 29-11 41-20 5-4 8-8 10-14 2-6 3-12 5-18 0-1 0-2 0-3z m-354 117c-1-21-10-42-30-57-17-13-37-10-53 6-15 15-23 35-23 57 1 28 24 52 52 53 22 0 38-11 48-30 4-8 6-17 6-29z m196 3c0 27 18 50 43 55 29 5 58-16 62-46 3-27-6-49-25-66-18-16-39-15-57 2-14 14-23 36-23 55z"/>
<glyph glyph-name="team-dashboard" unicode="&#57353;" d="M256 253c-71 0-128-31-128-73l0-86c36-10 74-11 116-12l24 0c42 1 80 2 116 12l0 86c0 42-57 73-128 73z m140 42c-43 0-81-13-100-33 21-4 40-10 57-19 26-15 44-37 44-63l0-36 12 0c37 0 71 3 104 12l0 73c-1 37-53 66-117 66z m-96-59l72-79 0 23c0 15-10 30-31 42-11 6-25 11-41 14z m149 145c0-27-22-49-50-49-27 0-49 22-49 49 0 27 22 48 49 48 27 0 50-21 50-48z m-333-86c-64 0-116-29-116-67l0-73c33-9 66-11 104-12l12 0 0 37c0 26 18 48 44 62 16 10 35 16 57 19-20 21-58 34-101 34z m96-59c-15-3-29-8-40-14-21-12-31-27-31-42l0-23z m-149 145c0-27 22-49 49-49 27 0 50 22 50 49 0 27-22 48-50 48-27 0-49-21-49-48z m279-147c0 1 0 0 0 0z m-172 0c0 0 0 1 0 0z m141 152c0 0-1 0-2 0l-12-3c-3 4-6 8-10 11l3 11c1 3 0 5-2 6l-6 2-5 3c-3 0-5 0-6-2l-6-10c-5 0-10 0-14 0l-7 10c0 0-1 1-2 2-1 0-2 0-4 0l-6-2-6-2c-2-1-3-3-2-5l2-12c-4-2-7-6-10-10l-11 3c-3 1-4 0-6-2l-2-6-3-5c-1-3 0-5 2-6l10-6c-1-5-1-10 0-14l-10-6c-2-2-3-4-2-6l2-5 3-6c0-1 1-2 2-2 1 0 2-1 3 0l12 2c2-4 6-7 10-10l-4-12c0-2 1-4 3-5l5-3 6-2c2-1 4 0 5 2l7 10c5-1 10-1 14 0l6-10c1-1 1-2 3-2 1-1 2-1 3 0l6 2 5 3c3 0 3 3 3 5l-3 12c4 2 8 6 10 9l12-3c3 0 4 1 6 3l2 5 3 6c0 2 0 4-2 5l-11 7c1 5 1 10 0 14l11 6c2 1 2 4 2 6l-3 5-2 6c0 0-1 1-2 1z m-45-57c-14-7-31 1-36 15-6 14 1 31 15 36 15 6 31-1 37-15 6-15-1-31-16-36z"/>
<glyph glyph-name="time" unicode="&#57354;" d="M279 512c6 0 13-2 18-7 3-3 6-6 7-10 4-12-1-21-14-21-7 0-14 0-21 0-1-4-1-8-1-13-5 0-8 0-12 0-4 0-8 0-13 0 0 5 0 9-1 13-8 0-15 0-22 0-11 0-16 7-14 17 1 5 3 9 6 13 6 5 13 8 21 8l46 0z m195-306c-6-111-95-200-206-206 0 8 1 16 0 25 0 7-6 13-12 13-7-1-12-6-12-14 0-8 0-16 0-24-10 0-19 2-29 3-12 3-24 6-36 10 0 1 0 1-1 1-44 17-82 48-107 88-10 16-18 33-24 53-5 16-8 33-9 51 8 0 16 0 23 0 9 0 14 5 15 12 0 8-6 12-15 13-8 0-15 0-23 0 7 111 95 199 206 205l0-230c29 0 57 0 85 0 48 0 97 0 145 0z m0 24c-49 0-98 0-147 0-17 0-34 0-51 0-2 0-5 0-7 1l0 205c110-6 199-95 205-206z m0 10l0-10 0 0c-6 111-95 200-205 206l0 0c50-3 94-21 133-55 4 4 7 9 12 13 6 6 15 7 20 1 5-5 4-13-2-20-2-2-4-4-6-6-2-1-5-3-7-5 4-5 8-10 12-14 23-32 37-67 42-106 0-1 1-2 1-4z"/>
<glyph glyph-name="time-1" unicode="&#57355;" d="M256 0c51 0 100 15 142 43 43 28 75 68 95 115 19 47 24 99 14 148-10 50-34 95-70 131-35 35-81 60-131 70-49 9-101 5-148-14-47-20-87-52-115-95-28-42-43-91-43-142 0-68 27-133 75-181 48-48 113-75 181-75z m0 470c42 0 84-12 119-36 35-24 63-57 79-96 16-39 21-83 13-124-9-42-29-80-59-110-30-30-68-50-110-59-41-8-84-3-124 13-39 16-72 44-96 79-24 35-36 77-36 119 0 57 22 111 62 152 41 40 95 62 152 62z m61-290c4 0 8 1 12 3 3 3 5 6 7 10 2 4 2 8 1 13-1 4-3 7-6 10l-54 50 0 155c0 5-3 11-6 15-4 3-10 6-15 6-5 0-11-3-15-6-3-4-6-10-6-15l0-174 68-62c3-3 9-5 14-5z"/>
<glyph glyph-name="toggle-menu" unicode="&#57356;" d="M29 402l220 0c16 0 29 13 29 30 0 16-13 29-29 29l-220 0c-16 0-29-13-29-29 0-17 13-30 29-30z m454-292l-220 0c-16 0-29-13-29-30 0-16 13-29 29-29l220 0c16 0 29 13 29 29 0 17-13 30-29 30z m29 146c0 16-13 29-29 29l-454 0c-16 0-29-13-29-29 0-16 13-29 29-29l454 0c16 0 29 13 29 29z"/>
<glyph glyph-name="tools" unicode="&#57357;" d="M22 21c27-28 71-28 99 0l135 134 135-134c13-14 31-21 50-21 38 0 70 32 70 70 0 19-8 37-21 50l-98 99c17 4 32 10 47 20 20 12 37 29 49 49 25 38 30 84 14 126-2 5-5 8-10 9-4 0-9-1-13-4l-66-69-62 0 0 62 69 68c3 4 4 9 4 13-2 5-5 8-9 10-41 16-88 11-126-14-20-12-37-29-49-49-17-26-25-55-23-84l-82 82 11 11c3 3 4 8 3 13-1 4-5 7-8 9l-81 27c-5 1-10 0-14-3l-27-28c-3-3-4-9-3-13l27-81c1-5 5-8 10-9 4-1 9 1 13 4l9 10 102-103-155-154c-27-28-28-72 0-100 0 0 0 0 0 0z m451 18c-18-16-45-16-62 0l-135 136 48 47c12-3 24-5 36-6l114-115c17-17 16-45-1-62z m-389 368c-5 5-13 5-18 0l-5-5-17 52 15 15 52-17-5-5c-5-5-5-13 0-18l110-112-20-20z m-44-306l208 207c4 4 5 10 3 15-13 33-9 72 12 102 10 17 24 30 41 40 18 12 39 19 61 19 6 0 14-1 20-2l-56-57c-4 0-5-4-5-7l0-81c0-8 6-14 14-14l81 0c3 0 7 2 9 4l57 56c5-27-2-57-17-80-11-17-25-31-41-41-30-20-69-25-102-12-5 2-10 1-14-3l-209-207c-16-18-43-20-62-4-18 16-20 44-3 62 1 2 2 3 3 3z m57-32c0-15-12-27-27-27-14 0-26 12-26 27 0 14 12 26 26 26 15 0 27-12 27-26z"/>
<glyph glyph-name="trigger" unicode="&#57358;" d="M509 287c-5 38-17 74-38 107-38 59-92 95-159 113-12 2-25 5-38 5 0 0-3 0-3 0-10 0-20 0-33 0-2-3-8 0-13-3-36-5-71-15-102-35-62-39-103-93-118-164-2-13-2-23-5-34 0 0 0-2 0-2 0-13 0-23 0-36 3-5 3-8 3-13 5-38 17-77 41-110 38-56 89-95 156-110 12-2 25-5 38-5 0 0 3 0 3 0 10 0 23 0 33 0 5 0 5 3 5 8 0 112 0 228 0 340 0 3 0 3 3 3 38 0 76 0 112 0 3 0 3 0 3 2 0 11 0 23 0 34 0 2 0 2-3 2-92 0-182 0-274 0-2 0-2 0-2-2 0-11 0-23 0-34 0-2 0-2 2-2 39 0 75 0 113 0 3 0 5 0 5-5 0-105 0-210 0-315 0 0 0 0 0-3 0-2 0-2-2-2-8 0-18 2-26 5-102 20-177 112-182 217 0 36 5 69 21 100 43 95 143 151 251 133 58-10 110-43 145-94 36-52 47-108 36-167-5-25-13-48-23-69 0-3-2-3 0-5 5-5 10-13 16-21 2-2 2-2 2 0 18 31 31 64 33 100 0 5 0 11 3 16 0 10 0 20 0 33-3 2 0 8-3 13z m-217-277c15 0 31 0 46-2-13 15-23 30-36 46-2-13-5-28-10-44z m51 64c-3-13-8-25-10-38 0-3 0-3 2-3 8 0 18 0 26 0 5 0 10 0 15 0-12 13-23 28-33 41z m36 21c-3-13-8-26-10-39 0-2 0-2 2-2 10 0 18 0 28 0 5 0 8 0 13 0-13 15-23 28-33 41 0 2 0 0 0 0z m49 13c10 0 23 0 33 0-8 10-16 20-23 33-5-13-8-23-10-33z m-24-26c11 0 24 0 34 0-8 10-16 20-23 33-5-13-8-23-11-33z"/>
<glyph glyph-name="trigger-an-employee" unicode="&#57359;" d="M450 126l0-103c0 0 0-1 0-1-2-13-11-21-25-21-47 0-93 0-140 0l-3 0c-1 19-3 37-5 55-1 18-3 35-4 53-1 5 0 11 2 15 5 8 10 16 14 24 2 3 2 7 0 10-4 7-8 14-12 21-2 3-5 5-9 5-8 0-16 0-25 0-3 0-6-2-8-4-4-8-8-15-12-23-2-2-2-6 0-9 4-8 9-16 14-24 2-3 3-7 3-10-1-8-2-16-2-24-3-26-5-53-7-79-1-3-1-6-1-10l-142 0c-2 0-3 0-4 0-10 1-19 8-21 18-1 1-1 2-1 4l0 103c0 4 1 8 1 12 8 32 27 53 59 63 11 4 22 8 33 12 7 2 14 4 20 7 1 0 2 1 3 2 3 8 6 16 9 23 1 3 3 5 5 6 3 1 5 0 8-1 18-11 36-22 54-33 1-1 3-1 4 0 18 11 36 21 54 32 6 4 11 2 13-4 3-8 6-16 9-23 1-1 1-2 2-2 17-6 35-13 52-18 11-3 21-8 30-15 19-14 30-36 32-59 0-1 0-2 0-2z m-105 234c-5-27-18-52-37-73-4-5-9-10-14-14-9-8-20-12-32-12-8-1-15 0-23 1-9 2-17 6-24 13-14 13-26 29-34 46-12 22-17 46-18 70 0 10 0 21 0 31 2 32 17 57 44 75 17 10 37 15 56 13 39-3 71-29 82-66 3-9 4-18 4-27 0-4 0-8 0-13 1-14-1-29-4-44z"/>
<glyph glyph-name="turnover" unicode="&#57360;" d="M222 508c3 0 5 0 8-3 15-5 30-13 40-25 0 0 0 0 2 0 8-3 15-10 18-18 5-10 5-20 5-30 0-10-3-23-3-33 0-2 0-2 3-5 3 0 3-5 3-7 0-8 0-13-3-20-3-8-3-13-8-20 0-3-2-5-5-8 0 5-2 3-5 5-2-10-5-18-7-25 0 0 0 0 0-3 0-10 0-17 0-27 0-3 0-3 2-5 33-15 63-36 91-58 0 0 2-3 2-3 0 0-2 0-2 0-30 0-58 0-88 0-20 0-38-12-43-32 0-3 0-8 0-10 0-23 0-43 0-66 0-2 0-2-2-2-58 0-114 0-171 0-11 0-18 7-21 17 0 18 0 35 0 53 0 0 0 0 0 3 0 0 0 0 0 2 3 18 10 30 26 43 5 2 7 5 12 7 25 18 50 33 78 46 3 0 3 2 3 2 0 8 0 15 0 23 0 0 0 2 0 2-10 13-13 23-15 36 0 0 0 0 0 2-3 0-5 3-8 5-3 3-3 8-5 13-3 7-5 15-5 25 0 7 2 10 10 10 0 5-3 12-3 18 0 17 3 32 13 45 8 15 20 25 33 32 10 6 20 11 30 11 0 0 2 0 2 0 0 0 0 0 3 0 2 0 5 0 5 0 3 0 3 0 5 0z m252-327c0-3-3-3-5-6-18-10-33-22-51-32 0 0 0 0-2 0-3-3-8 0-8 5 0 5 0 12 0 17 0 3 0 3-2 3-38 0-76 0-116 0-3 0-3 0-3-3 0-17 0-35 0-52 0-5-2-8-5-10-7-5-15-11-25-16 0 0-2 0-2 0-3 0-3 0-3 3 0 0 0 0 0 2 0 31 0 61 0 94 0 7 5 15 13 17 2 0 2 0 5 0 43 0 88 0 131 0 2 0 2 0 2 3 0 5 0 10 0 17 0 3 0 3 3 5 2 0 2 0 5 0 17-12 35-25 55-35 5-7 8-10 8-12z m-174-177c-18 13-38 26-55 38-3 3-3 5 0 8 17 12 35 22 53 35 2 0 2 2 5 0 2 0 2-3 2-5 0-5 0-13 0-18 0-2 0-2 3-2 37 0 75 0 115 0 3 0 3 0 3 2 0 18 0 36 0 53 0 5 2 8 5 8 7 5 17 10 25 17 3 3 3 0 5-2 0 0 0 0 0-3 0-30 0-60 0-90 0-10-5-15-15-18-3 0-3 0-5 0-43 0-88 0-131 0-2 0-2 0-2-2 0-5 0-11 0-16-3-2-3-5-8-5z"/>
<glyph glyph-name="xls-file" unicode="&#57361;" d="M489 324l-46 0 0 68c0 0 0 1 0 1 0 0 0 1 0 1 0 1 0 1 0 2 0 0 0 0 0 1 0 0-1 0-1 1 0 0 0 0 0 0-1 1-2 2-2 2l-109 108c0 1-1 1-1 1-1 0-1 1-1 1-1 0-1 0-1 0-1 0-1 0-2 1 0 0 0 0-1 0 0 0-1 0-2 0l-244 0c-6 0-10-5-10-11l0-176-46 0c-7 0-12-6-12-12l0-167c0-6 5-12 12-12l46 0 0-122c0-6 5-10 10-10l354 0c6 0 10 5 10 10l0 123 46 0c6 0 12 5 12 12l0 166c0 6-6 12-12 12z m-399 166l223 0 0-98c0-6 5-11 11-11l98 0 0-57-332 0z m277-275c-20 8-30 20-30 37 0 23 18 39 43 39 11 0 24-4 31-7l4-2-7-30-8 4c-3 2-11 5-20 5-7 0-7-5-7-7 0-2 0-4 14-10 19-8 28-20 28-38 0-18-11-40-44-40-13 0-28 5-34 9l-4 2 5 31 8-5c5-3 16-6 25-6 5 0 9 3 9 7 0 3 0 5-13 11z m-51-15l0-31-86 0 0 120 36 0 0-89z m-217 89l41 0 16-26 14 26 41 0-35-59 38-62-41 0-17 30-18-30-41 0 38 63z m323-267l-332 0 0 112 332 0c0 0 0-112 0-112z"/>
<glyph glyph-name="xls" unicode="&#57362;" d="M448 256l-95 0 0-143-64 0 110-113 113 113-64 0z m-448 256l0-205 512 0 0 205z m159-177l-34 49-33-51-36 0 52 77-47 71 36 0 28-46 29 46 33 0-44-71 52-75z m153 0l-102 0 0 144 31 0 0-121 74 0 0-23z m126 18c-5-7-10-13-21-15-7-5-18-5-30-5-18 0-34 5-44 13-10 7-15 20-18 38l31 0c2-10 5-18 10-20 5-3 13-8 21-8 10 0 17 2 20 5 5 5 8 8 8 15 0 3 0 8-3 8-2 3-5 5-10 5-3 0-10 3-23 8-15 5-28 7-33 15-11 8-13 18-13 31 0 8 2 15 5 20 5 8 10 11 18 16 8 2 18 5 28 5 18 0 33-5 41-13 8-8 15-18 15-33l-30-3c0 8-6 13-8 16-5 2-10 5-18 5-8 0-15-3-20-5-3 0-6-3-6-6 0-2 3-7 6-7 2-3 12-8 28-10 15-3 25-8 30-11 6-2 13-7 16-15 2-8 5-15 5-23 2-10 0-18-5-26z"/>
<glyph glyph-name="user-star" unicode="&#57363;" d="M328 196l-38-108-8 0-13 74c5 4 8 10 8 17l0 2c0 7-6 13-13 13l-17 0c-7 0-13-6-13-13l0-2c0-7 3-13 8-17l-13-74-8 0-38 108c-103-48-114-52-115-69 0-28 0-55 0-83 77-20 133-38 187-42 55 4 111 22 188 42 0 28 0 55 0 83-2 17-13 21-115 69z m73-109l-54 0c-7 0-10 8-5 12l26 30c3 3 8 3 11 0l27-30c5-5 1-12-5-12z m-238 217c0-51 41-92 92-92 52 0 93 41 93 92 0 51-41 93-93 93-51 0-92-42-92-93z m338 46l-42 6-19 39c-1 2-4 3-6 2-1-1-2-1-2-2l-19-39-43-6c-2 0-4-2-4-5 0-1 1-2 2-2l31-30-8-43c-1-3 1-5 4-6 1 0 2 0 3 1l38 20 38-20c2-1 5-1 6 2 1 1 1 2 1 3l-7 42 30 30c1 2 2 3 1 5-1 2-2 3-4 3z m-397-77c1-1 4 0 5 2 0 0 0 1 0 2l-5 32 23 23c1 1 2 3 1 4 0 1-1 2-3 3l-33 4-14 30c-1 2-3 2-5 1-1 0-2-1-2-1l-15-30-32-4c-3-1-4-3-4-5 0-1 1-1 1-2l24-23-6-32c0-2 1-4 3-4 1 0 2 0 2 0l30 15z m-53 181c1-1 2 0 2 1 0 1 1 1 0 1l-2 18 12 13c1 1 1 2 1 2 0 1-1 1-2 2l-18 2-8 16c0 1-1 2-2 1-1 0-1 0-1-1l-8-16-18-3c-1 0-2-1-2-2 0 0 1-1 1-1l13-13-3-17c-1-2 0-3 1-3 1 0 1 0 1 0l16 8z m95-9l-3-19c0-1 0-3 2-3 0 0 1 0 1 0l18 10 17-10c1 0 2 0 3 1 0 1 0 1 0 2l-4 19 15 14c0 1 1 2 0 2 0 1-1 2-1 2l-20 3-9 18c0 1-2 1-3 1-1 0-1-1-1-1l-9-18-19-3c-1 0-2-1-2-3 0 0 0-1 0-1z m170 10l-3-20c0-1 1-2 2-2 1 0 1 0 2 0l17 9 18-9c1-1 2 0 3 1 0 0 0 1 0 1l-4 20 14 13c1 1 1 2 1 2-1 1-1 2-2 2l-19 3-9 18c0 1-2 1-3 1 0 0-1-1-1-1l-9-18-19-3c-2 0-3-1-3-3 0 0 1-1 1-1z m190 32c0 1-1 1-1 1l-20 3-8 18c-1 1-2 2-3 1-1 0-1 0-1-1l-9-18-19-3c-1 0-2-1-2-2 0-1 0-1 0-2l14-14-3-19c0-1 1-3 2-3 1 0 1 0 2 0l17 10 18-10c1 0 2 0 3 1 0 1 0 1 0 2l-4 19 14 15c1 0 1 1 0 2z"/>
<glyph glyph-name="user-setting" unicode="&#57364;" d="M186 442c4 71 63 71 69 70 6 0 65 1 68-70 0 0 12-107-68-107l-1 0c-79 0-68 107-68 107z m214-233c0 0 0 1 0 2l0-63-50 0c4 9 3 21-5 28l-13 13c-4 4-11 7-18 7-5 0-9-1-14-4l-7-5c-1 1-2 1-3 2l-2 7c-1 13-12 21-24 21l-18 0c-13 0-23-8-25-21l-1-8c-2 0-2 0-3-1l-7 5c-4 3-9 4-14 4-7 0-13-2-18-7l-12-12c-8-8-10-19-5-29l-50 0 0 63c0-1 0-2 0-2 0 5 0 10 0 14l0 2c0 23 5 39 28 53 31 20 66 36 66 36l28-87 16 46c-28 39 2 41 8 41 5 0 35-2 7-41l16-46 28 87c0 0 35-16 66-36 23-14 28-31 29-53l0-2c-2-4-3-9-3-14z m-291 16c0 1 0 1 0 0z m291 0c0 1 0 1 0 0z m-44-117l0-18c0-4-3-7-6-7l-19-3c-1-7-4-14-8-20l11-16c1-3 1-7-1-9l-13-13c-2-2-6-3-9-1l-16 11c-6-3-13-6-20-8l-3-18c-1-4-4-6-7-6l-19 0c-3 0-6 2-7 6l-3 18c-7 2-13 5-19 8l-16-11c-3-1-7-1-9 1l-13 13c-2 2-3 6-1 9l11 15c-3 6-6 13-8 20l-19 4c-3 0-6 3-6 7l0 18c0 4 3 7 6 7l19 3c1 7 4 14 8 20l-11 16c-2 3-2 7 0 9l13 13c2 2 7 3 9 1l15-11c7 3 13 6 21 8l3 19c1 3 4 6 7 6l19 0c3 0 6-3 7-6l3-19c7-1 14-4 20-8l16 11c3 1 7 1 9-1l13-13c2-2 3-6 1-9l-11-16c3-6 6-13 8-20l18-3c4 0 6-3 7-7z m-54 2c-5 26-32 42-58 37-26-6-42-32-36-58 6-26 32-43 58-37 26 6 42 32 36 58z"/>
<glyph glyph-name="user-group" unicode="&#57365;" d="M85 79c-6 4-7 9-7 16 5 73 40 126 106 157 7 4 10 2 16-1 37-30 77-30 114 0 6 5 9 5 16 1 65-31 101-84 106-157 0-7-2-12-5-16-117 0-231 0-346 0z m185 354c7-4 16-6 23-9 30-16 48-41 48-76 0-36-14-64-41-85-25-21-56-21-83-2-48 34-58 104-21 145 12 14 30 19 46 27 9 0 18 0 28 0z m-268-244c5 7 5 14 7 21 5 12 14 25 23 35 5 6 10 11 17 15 9 3 13-8 18-11 16-11 32-16 53-11-5-10-12-17-18-23-12-14-21-30-28-47-2-6-5-7-10-7-16 0-32 0-48 0-5 0-11 1-14 5 0 7 0 14 0 23z m508-25c-5-5-12-5-19-5-16 0-32-4-44 2-14 3-14 24-23 35-9 12-20 26-32 39 12 0 23-2 33 3 8 4 15 7 20 11 16 12 16 12 30-2 18-16 28-33 33-56 0-2 0-4 2-6 0-5 0-14 0-21z m-455 150c0 29 23 51 51 53 30 0 53-23 53-51 0-32-25-60-51-62-27 0-53 28-53 60z m402 0c0-32-26-60-53-60-26 0-51 30-51 62 0 30 23 51 53 51 30 0 51-24 51-53z"/>
<glyph glyph-name="user-dollar" unicode="&#57366;" d="M264 297c0-56-45-102-101-102-57 0-102 46-102 102 0 56 45 101 102 101 56 0 101-45 101-101z m0-143l-203 0c-35 0-61-26-61-61 0-32 26-60 61-60l203 0c35 0 61 28 61 60 0 35-26 61-61 61z m238 325l-142 0c-2 0-6-2-9-2l-60-60c-2-3-2-5-2-9l0-182c0-7 4-11 10-11l203 0c6 0 10 4 10 11l0 243c0 6-4 10-10 10z m-10-243l-183 0 0 168 55 55 128 0z m-96 107c18-8 29-16 29-28 0-14-13-24-29-24-14 0-26 4-34 10l-6-17c8-6 22-10 36-10l0-24 14 0 0 24c25 4 39 23 39 41 0 22-12 34-39 45-20 8-30 14-30 28 0 10 6 20 26 20 17 0 27-6 31-8l6 17c-6 4-16 8-33 8l0 24-14 0 0-24c-22-4-36-19-36-39 2-22 16-32 40-43z"/>
<glyph glyph-name="user-building" unicode="&#57367;" d="M256 163l22 10 2 0c-18 16-28 40-28 65l-75 0 0 79 79 0 0-41c14 35 47 59 87 59 27 0 53-12 71-32l0 172-119 0 0 39-157 0 0-39-118 0 0-453 157 0 0 11c0 8 0 14 0 22 0 16 0 30 0 45l0 99 79 0z m39 272l79 0 0-79-79 0z m-118 0l79 0 0-79-79 0z m-39-315l-79 0 0 79 79 0z m0 118l-79 0 0 79 79 0z m0 118l-79 0 0 79 79 0z m354-256c0 14-10 16-90 56l-30-87-6 0-10 59c4 4 6 8 6 14l0 2c0 6-4 10-10 10l-13 0c-6 0-10-4-10-10l0-2c0-6 2-10 6-14l-10-59-10 0-29 87c-83-40-91-42-91-56 0-21 0-43 0-65 61-15 106-31 150-33 43 4 88 18 149 33-2 20-2 44-2 65z m-33-31l-43 0c-6 0-8 6-4 10l21 23c2 2 6 2 8 0l22-23c4-4 2-10-4-10z m-116 246c-42 0-73-33-73-73 0-39 33-73 73-73 41 0 73 34 73 73 0 40-32 73-73 73z"/>
<glyph glyph-name="user" unicode="&#57368;" d="M441 12c-2 0-5 0-7 0-122 0-241 0-363 0 0 0-3 0-3 0 0 0-2 0-2 0-3 0-5 0-7 3-30 5-47 22-54 51 0 2-3 7-3 10 0 4 0 9 0 17 0 2 0 5 0 5 3 19 5 39 10 56 10 36 29 63 64 82 14 10 31 18 48 25 3 0 3 0 5 0 39-46 88-66 149-59 27 3 51 15 73 30 12 7 22 17 29 29 0 0 0 2 3 0 17-10 36-17 53-29 27-17 47-42 54-71 7-22 10-44 12-66 0-2 0-5 0-7 0-5 0-10 0-15 0-2 0-5-2-7-5-27-27-49-56-54 2 0 0 0-3 0z m-178 488c3 0 5 0 8 0 56-5 104-47 117-103 17-65-17-134-81-158-80-32-166 17-183 97-14 74 32 144 105 159 5 2 10 5 17 5 3 0 3 0 3 0 0 0 0 0 2 0 3 0 5 0 7 0 3 0 3 0 5 0-2 0 0 0 0 0z"/>
<glyph glyph-name="uncheck" unicode="&#98;" d="M461 499c21 0 38-17 38-38l0-410c0-21-17-38-38-38l-410 0c-21 0-38 17-38 38l0 410c0 21 17 38 38 38l410 0m0 13l-410 0c-28 0-51-23-51-51l0-410c0-28 23-51 51-51l410 0c28 0 51 23 51 51l0 410c0 28-23 51-51 51z"/>
<glyph glyph-name="z" unicode="&#97;" d="M420 446c-1 28-18 53-45 62-26 9-55 1-72-21-18-21-20-51-5-75 15-25 45-38 74-30 28 8 48 34 48 64z m-45-125c-26 9-55 1-72-21-18-21-20-51-5-75 15-26 45-38 73-30 29 8 49 34 49 64-1 28-18 53-45 62z m0-192c-26 9-55 1-73-21-17-21-19-52-4-75 15-26 45-38 74-30 28 8 48 34 48 64-1 28-18 53-45 62z m-196 378c-26 9-55 1-72-21-17-21-19-51-5-75 14-23 42-36 70-30 30 6 52 33 52 64 0 28-18 53-45 62z m0-187c-26 9-55 1-72-21-17-21-19-51-5-75 14-24 42-36 70-30 30 6 52 33 52 64 0 28-18 53-45 62z m0-192c-26 9-55 1-72-21-17-21-19-51-5-75 14-24 42-36 70-30 29 6 50 30 52 60 2 29-17 56-45 66z"/>
<glyph glyph-name="survey" unicode="&#99;" d="M317 457c-8 2-13 8-15 15-6 20-24 35-46 35-21 0-40-15-45-34-3-8-9-13-16-16-19-6-34-24-34-45l0 0 190 0c0 22-15 40-34 45z m-61-14c-9 0-16 8-16 16 0 9 7 16 16 16 9 0 16-7 16-16 0-8-7-16-16-16z m168 16l-75 0c12-12 20-28 20-47l30 0c6 0 10-4 10-10l0-340c0-5-4-10-10-10l-286 0c-6 0-10 5-10 10l0 340c0 6 4 10 10 10l30 0c0 19 8 35 20 47l-75 0c-17 0-31-13-31-30l0-393c0-17 14-31 31-31l336 0c17 0 31 14 31 31l0 393c0 17-14 30-31 30z m-243-237l-23 0c-8 0-16-7-16-16 0-9 8-16 16-16l23 0c9 0 16 7 16 16 0 9-7 16-16 16z m0-104l-23 0c-8 0-16-8-16-16 0-9 8-16 16-16l23 0c9 0 16 7 16 16 0 8-7 16-16 16z m0 52l-23 0c-8 0-16-8-16-16 0-9 8-16 16-16l23 0c9 0 16 7 16 16 0 8-7 16-16 16z m52 20l121 0c8 0 16 7 16 16 0 9-8 16-16 16l-121 0c-9 0-16-7-16-16 0-9 7-16 16-16z m120-72l-120 0c-9 0-16-8-16-16 0-9 7-16 16-16l120 0c9 0 16 7 16 16 0 8-7 16-16 16z m1 52l-121 0c-9 0-16-8-16-16 0-9 7-16 16-16l121 0c8 0 16 7 16 16 0 8-8 16-16 16z m-23 202c-5 5-10 7-16 7 0 0 0 0 0 0-7 0-12-2-17-7l-45-44-17-17-22 22c-5 4-10 7-17 7 0 0 0 0 0 0-6 0-11-3-16-7-4-4-7-10-7-16 0-6 3-12 7-16l39-39c4-5 10-7 16-7 7 0 13 2 17 7l78 78c4 4 7 10 7 16 0 6-3 12-7 16z"/>
<glyph glyph-name="copy" unicode="&#100;" d="M70 486c-7 0-14-7-14-15l0-317c0-8 8-16 16-16l97 0 0-97c0-8 7-15 15-15l256 0c8 0 16 7 16 15l0 256c0 4-2 8-5 11l-61 61c-3 3-7 5-11 5l-36 0 0 36c0 4-2 8-4 10l-62 62c-3 3-7 4-11 4-65 0-131 0-196 0z m17-30l159 0 0-52c0-8 7-15 15-15l51 0 0-15c-43 0-86 0-129 0-8-1-14-8-14-16l0-189-82 0z m189-17l20-19-20 0z m-76-96l158 0 0-51c0-8 8-16 16-16l51 0 0-220-225 0z m189-17l19-19-19 0z"/>
<glyph glyph-name="back" unicode="&#101;" d="M109 225l371 0c42 0 42 64 0 64l-371 0 101 99c30 30-15 75-45 46l-153-153c-14-12-16-34-2-48l154-155c30-29 74 16 44 46z"/>
<glyph glyph-name="globe" unicode="&#103;" d="M256 512c-141 0-256-115-256-256 0-141 115-256 256-256 141 0 256 115 256 256 0 141-115 256-256 256z m97-453c-16 12-32 21-47 17-33-10-60 12-81-38-22 4-44 10-64 20 7 28-38 56-50 82-19 37 99 14 52 172-4 13-56-44-90-30-34 15 34 38 38 68 2 13-12 28-28 42 27 34 64 60 106 73-1-25 4-67 50-85 68-27 60-27 56-64-4-38 26-34 42-61 14-26-28-18-74-46-46-29-16-59 29-48 45 12 68 7 101-2 25-7 50 5 74 34-18-59-60-107-114-134z"/>
<glyph glyph-name="denote" unicode="&#104;" d="M480 384l-269 0c-21 0-38-16-40-37l-21-181c-1-20 13-38 34-38l269 0c21 0 38 18 40 38l19 181c2 19-13 37-32 37z m-62-126c0-4-4-8-7-10l-77-61c-3-3-6-3-9-3-7 0-11 5-11 11l3 35c0 0-63 0-66 0-6 0-11 5-11 12l3 33c2 5 7 10 11 11l26 0c18 0 40 0 40 0 0 0 3 32 3 36 2 6 7 11 13 11 3 0 6-2 8-3l40-39 11-9 11-12c10-4 12-8 12-12z m-287 73l-121 0c-5 0-10-5-10-9 0-5 5-10 10-10l120 0c4 0 9 5 9 10 0 4-3 9-8 9z m-6-53l-87 0c-4 0-9-4-9-9 0-5 5-10 9-10l87 0c5 0 9 5 9 10 0 5-3 9-9 9z m-5-59l-53 0c-5 0-9-5-9-9 0-5 3-10 9-10l53 0c5 0 10 5 10 10 0 4-5 9-10 9z"/>
<glyph glyph-name="wall" unicode="&#105;" d="M469 512l-426 0c-24 0-43-19-43-43l0-427c0-23 19-42 43-42l427 0c23 0 43 19 43 43l0 426c-1 24-20 43-44 43z m-426-90c0 12 9 22 21 22l60 0c11 0 21-10 21-22l0-59c0-12-10-21-21-21l-60 0c-12 0-21 9-21 21z m221-196l47 47 69-77-244 0 77 102z m-8 56c0 7 6 12 13 12 7 0 13-5 13-12 0-7-6-13-13-13-7 0-13 6-13 13z m194-226l-388 0c-11 0-19 8-19 19 0 11 8 19 19 19l389 0c10 0 19-8 19-19 0-11-9-19-20-19z m0 59l-388 0c-11 0-19 9-19 19 0 11 8 20 19 20l389 0c10 0 19-9 19-20 0-10-9-19-20-19z m0 226l-239 0c-11 0-19 8-19 19 0 11 8 20 19 20l239 0c11 0 19-9 19-20 0-11-8-19-19-19z m0 60l-239 0c-11 0-19 9-19 19 0 11 8 20 19 20l239 0c11 0 19-9 19-20 0-10-8-19-19-19z"/>
<glyph glyph-name="replay" unicode="&#106;" d="M324 269l0 67c0 19 24 30 37 17l145-144c8-9 8-22 0-31l-145-145c-13-14-37-3-37 16l0 67-59 0c-243 0-322 138-223 355 10 21 31 17 28-9-22-150 54-193 195-193z"/>
<glyph glyph-name="comment" unicode="&#102;" d="M256 498c-141 0-255-93-255-208 0-67 38-121 98-158l-49-119 147 80c19-4 40-10 59-10 142 0 256 93 256 208-1 114-114 207-256 207z"/>
<glyph glyph-name="comment-read" unicode="&#107;" d="M295 501c-123 17-237-72-254-198-7-58 7-115 39-162-11-33-28-63-51-87-7-7-10-18-6-28 3-9 10-15 20-16 6-1 11-1 17-1 44 0 88 17 125 49 17-6 34-11 51-13 59-8 119 9 166 47 48 37 79 91 87 152 16 126-71 241-194 257z m155-253c-7-50-32-95-72-126-39-31-88-45-137-39-17 3-35 8-53 15l-12 5-9-9c-27-26-58-42-91-45 20 26 36 57 45 90l2 9-6 8c-30 41-43 91-37 141 13 97 94 167 186 167 8 0 16-1 24-2 102-13 174-109 160-214z m-167-70c-7 0-11 1-14 3-2 2-4 6-4 12 0 2 1 5 1 10 1 4 2 8 3 12l12 43c1 4 2 8 3 13 0 5 0 9 0 11 0 9-3 16-10 22-6 6-15 9-27 9-7 0-14-1-21-4-7-2-16-5-24-8l-2-14c2 1 5 2 8 3 4 1 7 2 10 2 7 0 11-1 13-3 3-2 4-6 4-12 0-3-1-7-1-10-1-4-2-8-3-12l-12-44c-1-5-2-9-2-12-1-4-1-8-1-11 0-9 4-16 10-23 7-5 16-8 28-8 8 0 15 1 21 3 6 2 14 5 23 8l4 14c-2-1-5-2-9-3-4-1-7-1-10-1z m-8 215c-8 0-15-2-21-8-6-6-9-12-9-19 0-8 3-15 9-20 6-5 13-8 21-8 8 0 15 2 21 8 6 5 9 12 9 20 0 7-3 14-9 19-6 5-13 8-21 8z"/>
<glyph glyph-name="prohibited-access" unicode="&#108;" d="M256 512c-141 0-256-115-256-256 0-141 115-256 256-256 141 0 256 115 256 256 0 141-115 256-256 256z m152-401c-73-76-190-86-273-26l18 18c-12 7-19 19-19 33l0 43-47-47c-59 80-54 194 17 269 74 77 192 86 276 24l-49-50c19-24 13-55 13-55 7-1 13-3 18-7l65 64c57-80 51-192-19-266z m-68 192l-13 0 0 27c0 37-30 67-67 67l-11 0c-36 0-66-30-66-67l0-27-11 0c-12 0-21-10-21-21l0-146c0-11 9-21 21-21l168 0c12 0 21 10 21 21l0 146c0 11-9 21-21 21z m-124 34c0 18 14 32 31 32l16 0c17 0 31-14 31-32l0-32-78 0z m4-184l14 56c-5 5-7 12-7 19 0 16 13 29 29 29 16 0 29-13 29-29 0-7-2-14-7-19l14-56z"/>
<glyph glyph-name="location-1" unicode="&#109;" d="M256 0c71 92 193 195 193 319 0 107-86 193-193 193-107 0-193-86-193-193 0-124 122-227 193-319z m0 422c57 0 103-47 103-103 0-57-46-104-103-104-57 0-103 47-103 104 0 56 46 103 103 103z"/>
<glyph glyph-name="location-2" unicode="&#110;" d="M320 80l-44 0c28 37 124 166 124 240 0 80-64 144-144 144-80 0-144-64-144-144 0-74 96-203 124-240l-44 0c-9 0-16-7-16-16 0-9 7-16 16-16l128 0c9 0 16 7 16 16 0 9-7 16-16 16z m-128 240c0 35 29 64 64 64 35 0 64-29 64-64 0-35-29-64-64-64-35 0-64 29-64 64z"/>
<glyph glyph-name="notepad" unicode="&#111;" d="M425 414l-83 0 0 26-36 0 0 26-100 0 0-26-36 0 0-26-83 0 0-368 338 0z m-235 5l36 0 0 27 60 0 0-27 36 0 0-45-132 0z m214-353l-296 0 0 328 62 0 0-40 172 0 0 40 62 0z m-169 124l-44 50-16-13 58-66 104 92-14 16z"/>
<glyph glyph-name="multiple-employee" unicode="&#112;" d="M512 273c0 67-45 109-60 121 17 29 11 65-14 86-25 22-62 22-87 0-25-21-31-57-14-86-5-4-10-9-15-13-21 8-43 13-66 13-23-1-45-5-66-14-5 5-10 10-15 14 17 29 11 65-14 86-25 22-62 22-87 0-25-21-31-57-14-86-15-12-60-54-60-121l0-11 90 0c-3-13-5-26-5-39 0-53 25-103 67-136-9-19-13-39-13-60l0-11 234 0 0 11c0 21-4 41-13 60 42 33 67 83 67 136 0 13-2 26-5 39l90 0z m-117 202c25 0 46-21 46-46 0-26-21-47-46-47-26 0-46 21-46 47 0 25 20 46 46 46z m-278 0c26 0 46-21 46-46 0-26-20-47-46-47-25 0-46 21-46 47 0 25 21 46 46 46z m-44-97c26-22 63-22 88 0 6-4 11-9 16-15 0 0 0 0 0 0 1-2 2-4 4-5 18-21 29-47 32-74l-191 0c4 51 40 85 51 94z m183-341l-96 0c5 52 41 86 52 95 25-22 63-22 88 0 11-9 47-43 52-95z m0 100c-25 0-46 20-46 46 0 25 21 46 46 46 25 0 46-21 46-46 0-26-21-46-46-46z m149 86c0-45-20-88-55-117-10 16-22 30-36 42 6 10 9 22 9 34-1 37-31 66-67 66-36 0-66-29-67-66 0-12 3-24 9-34-14-12-26-26-36-42-35 29-55 72-55 117 0 13 2 27 6 39l122 0 0 11c0 32-11 64-30 90 16 6 33 9 51 9 18 0 35-3 52-9-20-26-30-57-31-90l0-10 122 0c4-13 6-27 6-40z m-10 61l-96 0c5 51 41 85 52 94 25-22 62-22 88 0 11-9 47-43 51-94z"/>
<glyph glyph-name="none-of-the-above" unicode="&#113;" d="M509 493c4 4 4 11 0 16-5 4-12 4-16 0l-64-64c-101 91-256 87-352-10-97-96-101-251-10-352l-64-64c-4-4-4-11 0-16 5-4 12-4 16 0l64 64c101-91 256-87 352 10 97 96 101 251 10 352z m-486-237c0 92 54 176 139 213 84 37 182 22 251-40l-330-330c-39 43-60 99-60 157z m466 0c0-92-54-176-139-213-84-37-182-22-251 40l330 330c39-43 60-99 60-157z"/>
<glyph glyph-name="star-1" unicode="&#114;" d="M463 339l-116 17c-2 0-4 2-5 4l-52 105c-6 13-19 21-34 21-15 0-28-8-34-21l-52-105c-1-2-3-4-5-4l-116-17c-15-2-27-12-31-26-5-14-1-29 10-39l84-82c1-1 2-4 1-6l-19-115c-3-15 3-29 15-38 12-8 27-9 40-3l104 55c2 1 4 1 6 0l104-55c5-3 12-4 18-4 7 0 15 2 22 7 12 9 18 23 15 38l-19 115c-1 2 0 5 1 6l84 82c11 10 15 25 10 39-4 14-16 24-31 26z"/>
</font>
</defs>
</svg>
